ISO-10303-21;
HEADER;
FILE_DESCRIPTION (( 'STEP AP203' ),
    '1' );
FILE_NAME ('box.STEP',
    '2026-08-30T07:37:31',
    ( '' ),
    ( '' ),
    'SwSTEP 2.0',
    'SolidWorks 2021',
    '' );
FILE_SCHEMA (( 'CONFIG_CONTROL_DESIGN' ));
ENDSEC;

DATA;
#1 = VECTOR ( 'NONE', #1053, 1000.000000000000000 ) ;
#2 = COORDINATED_UNIVERSAL_TIME_OFFSET ( 8, 0, .AHEAD. ) ;
#3 = CLOSED_SHELL ( 'NONE', ( #290, #465, #1274, #1217, #863, #155, #1002, #351, #361, #1009, #797, #998, #888, #1253, #591, #535, #667, #696, #853, #295, #1200, #1305, #1020, #500, #54, #309, #1207, #1075, #712, #1085, #720, #952, #247, #10, #321, #404, #402 ) ) ;
#4 = ORIENTED_EDGE ( 'NONE', *, *, #826, .T. ) ;
#5 = CARTESIAN_POINT ( 'NONE',  ( 30.49999999999999645, 0.000000000000000000, 0.000000000000000000 ) ) ;
#6 = LINE ( 'NONE', #430, #82 ) ;
#7 = CARTESIAN_POINT ( 'NONE',  ( 0.000000000000000000, 3.000000000000000000, 0.000000000000000000 ) ) ;
#8 = AXIS2_PLACEMENT_3D ( 'NONE', #16, #120, #1239 ) ;
#9 = VECTOR ( 'NONE', #423, 1000.000000000000000 ) ;
#10 = ADVANCED_FACE ( 'NONE', ( #254 ), #475, .F. ) ;
#11 = DIRECTION ( 'NONE',  ( 0.000000000000000000, 1.000000000000000000, 0.000000000000000000 ) ) ;
#12 = DIRECTION ( 'NONE',  ( -1.000000000000000000, 0.000000000000000000, 0.000000000000000000 ) ) ;
#13 = DIRECTION ( 'NONE',  ( 0.000000000000000000, 1.000000000000000000, 0.000000000000000000 ) ) ;
#14 = VECTOR ( 'NONE', #424, 1000.000000000000000 ) ;
#15 = APPLICATION_PROTOCOL_DEFINITION ( 'international standard', 'config_control_design', 1994, #748 ) ;
#16 = CARTESIAN_POINT ( 'NONE',  ( 23.00000000000000711, 10.00000000000000000, 6.999999999999995559 ) ) ;
#17 = DIRECTION ( 'NONE',  ( 1.000000000000000000, -0.000000000000000000, -0.000000000000000000 ) ) ;
#18 = EDGE_CURVE ( 'NONE', #160, #51, #173, .T. ) ;
#19 = CARTESIAN_POINT ( 'NONE',  ( 20.00000000000000000, 0.000000000000000000, 0.000000000000000000 ) ) ;
#20 = VERTEX_POINT ( 'NONE', #1178 ) ;
#21 = VERTEX_POINT ( 'NONE', #558 ) ;
#22 = CARTESIAN_POINT ( 'NONE',  ( 30.49999999999999645, 3.000000000000000000, 25.49999999999999289 ) ) ;
#23 = PLANE ( 'NONE',  #1222 ) ;
#24 = LINE ( 'NONE', #723, #412 ) ;
#25 = VERTEX_POINT ( 'NONE', #1087 ) ;
#26 = CC_DESIGN_PERSON_AND_ORGANIZATION_ASSIGNMENT ( #1232, #315, ( #127 ) ) ;
#27 = DIRECTION ( 'NONE',  ( -0.000000000000000000, 1.000000000000000000, -0.000000000000000000 ) ) ;
#28 = PLANE ( 'NONE',  #703 ) ;
#29 = FACE_OUTER_BOUND ( 'NONE', #1082, .T. ) ;
#30 = CARTESIAN_POINT ( 'NONE',  ( 25.00000000000000000, 0.000000000000000000, 21.59999999999999787 ) ) ;
#31 = CARTESIAN_POINT ( 'NONE',  ( -20.00000000000000000, 0.000000000000000000, 0.000000000000000000 ) ) ;
#32 = VERTEX_POINT ( 'NONE', #964 ) ;
#33 = CARTESIAN_POINT ( 'NONE',  ( -25.00000000000000000, 0.000000000000000000, 20.00000000000000355 ) ) ;
#34 = DIRECTION ( 'NONE',  ( 0.000000000000000000, 1.000000000000000000, 0.000000000000000000 ) ) ;
#35 = EDGE_CURVE ( 'NONE', #438, #223, #55, .T. ) ;
#36 = ORIENTED_EDGE ( 'NONE', *, *, #132, .T. ) ;
#37 = EDGE_CURVE ( 'NONE', #655, #66, #862, .T. ) ;
#38 = LINE ( 'NONE', #141, #1308 ) ;
#39 = ORIENTED_EDGE ( 'NONE', *, *, #770, .F. ) ;
#40 = ORIENTED_EDGE ( 'NONE', *, *, #787, .F. ) ;
#41 = CARTESIAN_POINT ( 'NONE',  ( 20.00000000000000000, 0.000000000000000000, -15.00000000000000000 ) ) ;
#42 = CARTESIAN_POINT ( 'NONE',  ( 25.00000000000000000, 0.000000000000000000, -20.00000000000000355 ) ) ;
#43 = ORIENTED_EDGE ( 'NONE', *, *, #1220, .F. ) ;
#44 = ORIENTED_EDGE ( 'NONE', *, *, #116, .F. ) ;
#45 = DIRECTION ( 'NONE',  ( 0.000000000000000000, 0.000000000000000000, 1.000000000000000000 ) ) ;
#46 = VECTOR ( 'NONE', #970, 1000.000000000000000 ) ;
#47 = ORIENTED_EDGE ( 'NONE', *, *, #1143, .T. ) ;
#48 = CARTESIAN_POINT ( 'NONE',  ( 2.900685156551382031E-15, 0.000000000000000000, 25.49999999999999645 ) ) ;
#49 = DIRECTION ( 'NONE',  ( 0.000000000000000000, 0.000000000000000000, -1.000000000000000000 ) ) ;
#50 = ORIENTED_EDGE ( 'NONE', *, *, #391, .F. ) ;
#51 = VERTEX_POINT ( 'NONE', #232 ) ;
#52 = AXIS2_PLACEMENT_3D ( 'NONE', #1246, #329, #291 ) ;
#53 = PLANE ( 'NONE',  #113 ) ;
#54 = ADVANCED_FACE ( 'NONE', ( #1181 ), #28, .F. ) ;
#55 = LINE ( 'NONE', #455, #339 ) ;
#56 = DIRECTION ( 'NONE',  ( -0.000000000000000000, 1.000000000000000000, -0.000000000000000000 ) ) ;
#57 = CARTESIAN_POINT ( 'NONE',  ( 25.00000000000000000, 0.000000000000000000, -18.40000000000000213 ) ) ;
#58 = ORIENTED_EDGE ( 'NONE', *, *, #417, .F. ) ;
#59 = ORIENTED_EDGE ( 'NONE', *, *, #627, .T. ) ;
#60 = VERTEX_POINT ( 'NONE', #1058 ) ;
#61 = FACE_OUTER_BOUND ( 'NONE', #566, .T. ) ;
#62 = VERTEX_POINT ( 'NONE', #750 ) ;
#63 = EDGE_CURVE ( 'NONE', #268, #420, #249, .T. ) ;
#64 = CARTESIAN_POINT ( 'NONE',  ( -32.99999999999999289, 10.00000000000000000, -27.99999999999999645 ) ) ;
#65 = PLANE ( 'NONE',  #286 ) ;
#66 = VERTEX_POINT ( 'NONE', #731 ) ;
#67 = VECTOR ( 'NONE', #383, 1000.000000000000000 ) ;
#68 = EDGE_LOOP ( 'NONE', ( #380, #146, #1278, #1083 ) ) ;
#69 = VERTEX_POINT ( 'NONE', #544 ) ;
#70 = VECTOR ( 'NONE', #203, 1000.000000000000000 ) ;
#71 = ORIENTED_EDGE ( 'NONE', *, *, #619, .F. ) ;
#72 = SECURITY_CLASSIFICATION ( '', '', #910 ) ;
#73 = AXIS2_PLACEMENT_3D ( 'NONE', #849, #957, #49 ) ;
#74 = ORIENTED_EDGE ( 'NONE', *, *, #447, .F. ) ;
#75 = VECTOR ( 'NONE', #875, 1000.000000000000000 ) ;
#76 = CARTESIAN_POINT ( 'NONE',  ( -30.50000000000000355, 10.00000000000000000, -25.50000000000000000 ) ) ;
#77 = DIRECTION ( 'NONE',  ( -1.000000000000000000, 0.000000000000000000, 0.000000000000000000 ) ) ;
#78 = CC_DESIGN_DATE_AND_TIME_ASSIGNMENT ( #807, #305, ( #72 ) ) ;
#79 = ORIENTED_EDGE ( 'NONE', *, *, #1122, .T. ) ;
#80 = VERTEX_POINT ( 'NONE', #1040 ) ;
#81 = EDGE_LOOP ( 'NONE', ( #534, #187 ) ) ;
#82 = VECTOR ( 'NONE', #121, 1000.000000000000000 ) ;
#83 = EDGE_LOOP ( 'NONE', ( #777, #958, #871, #858 ) ) ;
#84 = LINE ( 'NONE', #695, #227 ) ;
#85 = DIRECTION ( 'NONE',  ( -1.000000000000000000, 0.000000000000000000, -0.000000000000000000 ) ) ;
#86 = ORIENTED_EDGE ( 'NONE', *, *, #1316, .F. ) ;
#87 = EDGE_CURVE ( 'NONE', #270, #25, #936, .T. ) ;
#88 = CC_DESIGN_APPROVAL ( #1056, ( #127 ) ) ;
#89 = CARTESIAN_POINT ( 'NONE',  ( 25.00000000000000000, 3.000000000000000000, -20.00000000000000355 ) ) ;
#90 = DIRECTION ( 'NONE',  ( 0.000000000000000000, 0.000000000000000000, 1.000000000000000000 ) ) ;
#91 = EDGE_CURVE ( 'NONE', #1187, #1022, #1044, .T. ) ;
#92 = FACE_OUTER_BOUND ( 'NONE', #273, .T. ) ;
#93 = VECTOR ( 'NONE', #311, 1000.000000000000000 ) ;
#94 = DIRECTION ( 'NONE',  ( 0.000000000000000000, -1.000000000000000000, -0.000000000000000000 ) ) ;
#95 = CARTESIAN_POINT ( 'NONE',  ( -20.00000000000000000, 0.000000000000000000, 25.50000000000000000 ) ) ;
#96 = CARTESIAN_POINT ( 'NONE',  ( 23.00000000000000711, 10.00000000000000000, 6.999999999999995559 ) ) ;
#97 = EDGE_CURVE ( 'NONE', #178, #882, #1100, .T. ) ;
#98 = DIRECTION ( 'NONE',  ( 0.000000000000000000, 0.000000000000000000, -1.000000000000000000 ) ) ;
#99 = CALENDAR_DATE ( 2026, 30, 8 ) ;
#100 = LINE ( 'NONE', #5, #387 ) ;
#101 = CARTESIAN_POINT ( 'NONE',  ( 25.00000000000000000, 3.000000000000000000, 18.39999999999999503 ) ) ;
#102 = EDGE_CURVE ( 'NONE', #1060, #1146, #1251, .T. ) ;
#103 = CARTESIAN_POINT ( 'NONE',  ( -25.00000000000000000, 0.000000000000000000, -18.39999999999999503 ) ) ;
#104 = DIRECTION ( 'NONE',  ( 0.000000000000000000, 0.000000000000000000, 1.000000000000000000 ) ) ;
#105 = CARTESIAN_POINT ( 'NONE',  ( -32.99999999999999289, 10.00000000000000000, -14.49999999999999645 ) ) ;
#106 = EDGE_CURVE ( 'NONE', #1038, #425, #336, .T. ) ;
#107 = VECTOR ( 'NONE', #306, 1000.000000000000000 ) ;
#108 = PERSON_AND_ORGANIZATION ( #583, #1214 ) ;
#109 = ORIENTED_EDGE ( 'NONE', *, *, #1265, .T. ) ;
#110 = DIRECTION ( 'NONE',  ( 0.000000000000000000, 1.000000000000000000, -5.782411586589356653E-16 ) ) ;
#111 = CARTESIAN_POINT ( 'NONE',  ( -30.50000000000000355, 0.000000000000000000, -15.00000000000000000 ) ) ;
#112 = CARTESIAN_POINT ( 'NONE',  ( 20.00000000000000000, 0.000000000000000000, 15.00000000000000000 ) ) ;
#113 = AXIS2_PLACEMENT_3D ( 'NONE', #654, #1061, #1176 ) ;
#114 = CALENDAR_DATE ( 2026, 30, 8 ) ;
#115 = FACE_OUTER_BOUND ( 'NONE', #147, .T. ) ;
#116 = EDGE_CURVE ( 'NONE', #967, #267, #552, .T. ) ;
#117 = LINE ( 'NONE', #1031, #994 ) ;
#118 = DIRECTION ( 'NONE',  ( 0.000000000000000000, 1.000000000000000000, 0.000000000000000000 ) ) ;
#119 = ORIENTED_EDGE ( 'NONE', *, *, #1115, .F. ) ;
#120 = DIRECTION ( 'NONE',  ( 0.000000000000000000, 0.000000000000000000, 1.000000000000000000 ) ) ;
#121 = DIRECTION ( 'NONE',  ( -0.000000000000000000, 1.000000000000000000, -0.000000000000000000 ) ) ;
#122 = AXIS2_PLACEMENT_3D ( 'NONE', #608, #298, #1123 ) ;
#123 = LINE ( 'NONE', #629, #1001 ) ;
#124 = VERTEX_POINT ( 'NONE', #1259 ) ;
#125 = CARTESIAN_POINT ( 'NONE',  ( 30.49999999999999645, 3.000000000000000000, 25.49999999999999289 ) ) ;
#126 = CARTESIAN_POINT ( 'NONE',  ( -20.00000000000000000, 0.000000000000000000, 15.00000000000000000 ) ) ;
#127 = PRODUCT_DEFINITION_FORMATION_WITH_SPECIFIED_SOURCE ( '任何', '', #445, .NOT_KNOWN. ) ;
#128 = APPROVAL_STATUS ( 'not_yet_approved' ) ;
#129 = VECTOR ( 'NONE', #1164, 1000.000000000000000 ) ;
#130 = FACE_BOUND ( 'NONE', #664, .T. ) ;
#131 = CARTESIAN_POINT ( 'NONE',  ( 20.00000000000000000, 3.000000000000000000, 15.00000000000000000 ) ) ;
#132 = EDGE_CURVE ( 'NONE', #420, #1183, #642, .T. ) ;
#133 = CARTESIAN_POINT ( 'NONE',  ( -32.99999999999999289, 3.000000000000000000, -14.49999999999999645 ) ) ;
#134 = ORIENTED_EDGE ( 'NONE', *, *, #1003, .F. ) ;
#135 = EDGE_CURVE ( 'NONE', #1038, #1182, #880, .T. ) ;
#136 = CARTESIAN_POINT ( 'NONE',  ( 25.00000000000000000, 0.000000000000000000, 19.99999999999999645 ) ) ;
#137 = CARTESIAN_POINT ( 'NONE',  ( -25.00000000000000000, 3.000000000000000000, 18.40000000000000213 ) ) ;
#138 = VECTOR ( 'NONE', #149, 1000.000000000000000 ) ;
#139 = EDGE_LOOP ( 'NONE', ( #579, #829, #481, #1072 ) ) ;
#140 = CARTESIAN_POINT ( 'NONE',  ( 0.000000000000000000, 0.000000000000000000, 0.000000000000000000 ) ) ;
#141 = CARTESIAN_POINT ( 'NONE',  ( -2.900685156551382820E-15, 0.000000000000000000, -25.50000000000000355 ) ) ;
#142 = DIRECTION ( 'NONE',  ( 0.000000000000000000, 0.000000000000000000, -1.000000000000000000 ) ) ;
#143 = EDGE_LOOP ( 'NONE', ( #1293, #860, #47, #377 ) ) ;
#144 = CARTESIAN_POINT ( 'NONE',  ( 0.000000000000000000, 3.000000000000000000, 15.00000000000000000 ) ) ;
#145 = CARTESIAN_POINT ( 'NONE',  ( 30.49999999999999645, 3.000000000000000000, 25.49999999999999289 ) ) ;
#146 = ORIENTED_EDGE ( 'NONE', *, *, #373, .F. ) ;
#147 = EDGE_LOOP ( 'NONE', ( #738, #561, #652, #179 ) ) ;
#148 = VECTOR ( 'NONE', #638, 1000.000000000000000 ) ;
#149 = DIRECTION ( 'NONE',  ( 0.000000000000000000, 0.000000000000000000, 1.000000000000000000 ) ) ;
#150 = ORIENTED_EDGE ( 'NONE', *, *, #987, .T. ) ;
#151 = CARTESIAN_POINT ( 'NONE',  ( 0.000000000000000000, 0.000000000000000000, 15.00000000000000000 ) ) ;
#152 = DIRECTION ( 'NONE',  ( 0.000000000000000000, 0.000000000000000000, 1.000000000000000000 ) ) ;
#153 = ORIENTED_EDGE ( 'NONE', *, *, #971, .T. ) ;
#154 = VERTEX_POINT ( 'NONE', #427 ) ;
#155 = ADVANCED_FACE ( 'NONE', ( #741 ), #1049, .F. ) ;
#156 = LINE ( 'NONE', #961, #690 ) ;
#157 = DIRECTION ( 'NONE',  ( -1.000000000000000000, 0.000000000000000000, -0.000000000000000000 ) ) ;
#158 = CYLINDRICAL_SURFACE ( 'NONE', #470, 1.600000000000000755 ) ;
#159 = DIRECTION ( 'NONE',  ( 0.000000000000000000, 1.000000000000000000, 0.000000000000000000 ) ) ;
#160 = VERTEX_POINT ( 'NONE', #835 ) ;
#161 = ORIENTED_EDGE ( 'NONE', *, *, #278, .F. ) ;
#162 = ORIENTED_EDGE ( 'NONE', *, *, #919, .F. ) ;
#163 = CARTESIAN_POINT ( 'NONE',  ( -20.00000000000000000, 0.000000000000000000, -15.00000000000000000 ) ) ;
#164 = EDGE_CURVE ( 'NONE', #51, #625, #942, .T. ) ;
#165 = DIRECTION ( 'NONE',  ( -1.000000000000000000, 0.000000000000000000, 1.051347561198064835E-16 ) ) ;
#166 = DIRECTION ( 'NONE',  ( -1.000000000000000000, 0.000000000000000000, 0.000000000000000000 ) ) ;
#167 = LINE ( 'NONE', #578, #643 ) ;
#168 = ORIENTED_EDGE ( 'NONE', *, *, #37, .F. ) ;
#169 = ORIENTED_EDGE ( 'NONE', *, *, #809, .T. ) ;
#170 = ORIENTED_EDGE ( 'NONE', *, *, #1194, .F. ) ;
#171 = VERTEX_POINT ( 'NONE', #345 ) ;
#172 = VERTEX_POINT ( 'NONE', #843 ) ;
#173 = LINE ( 'NONE', #678, #1283 ) ;
#174 = PLANE ( 'NONE',  #407 ) ;
#175 = CARTESIAN_POINT ( 'NONE',  ( -32.99999999999999289, 10.00000000000000000, -14.49999999999999822 ) ) ;
#176 = EDGE_LOOP ( 'NONE', ( #895, #851 ) ) ;
#177 = VECTOR ( 'NONE', #995, 1000.000000000000000 ) ;
#178 = VERTEX_POINT ( 'NONE', #137 ) ;
#179 = ORIENTED_EDGE ( 'NONE', *, *, #164, .F. ) ;
#180 = EDGE_LOOP ( 'NONE', ( #977, #779, #889, #1066 ) ) ;
#181 = AXIS2_PLACEMENT_3D ( 'NONE', #261, #870, #454 ) ;
#182 = VECTOR ( 'NONE', #865, 1000.000000000000000 ) ;
#183 = FACE_OUTER_BOUND ( 'NONE', #83, .T. ) ;
#184 = EDGE_CURVE ( 'NONE', #364, #715, #537, .T. ) ;
#185 = FACE_OUTER_BOUND ( 'NONE', #443, .T. ) ;
#186 = CARTESIAN_POINT ( 'NONE',  ( -25.00000000000000000, 3.000000000000000000, -19.99999999999999645 ) ) ;
#187 = ORIENTED_EDGE ( 'NONE', *, *, #606, .F. ) ;
#188 = EDGE_CURVE ( 'NONE', #223, #21, #1171, .T. ) ;
#189 = VECTOR ( 'NONE', #822, 1000.000000000000000 ) ;
#190 = AXIS2_PLACEMENT_3D ( 'NONE', #727, #931, #1025 ) ;
#191 = FACE_OUTER_BOUND ( 'NONE', #322, .T. ) ;
#192 = CARTESIAN_POINT ( 'NONE',  ( 20.00000000000000000, 0.000000000000000000, 15.00000000000000000 ) ) ;
#193 = CARTESIAN_POINT ( 'NONE',  ( 33.00000000000000711, 10.00000000000000000, 27.99999999999999645 ) ) ;
#194 = AXIS2_PLACEMENT_3D ( 'NONE', #151, #1048, #730 ) ;
#195 = CARTESIAN_POINT ( 'NONE',  ( -40.50000000000000000, 3.000000000000000000, -0.4999999999999970024 ) ) ;
#196 = EDGE_CURVE ( 'NONE', #1078, #550, #399, .T. ) ;
#197 = DIRECTION ( 'NONE',  ( 1.000000000000000000, 0.000000000000000000, 0.000000000000000000 ) ) ;
#198 = CC_DESIGN_APPROVAL ( #1298, ( #876 ) ) ;
#199 = FACE_OUTER_BOUND ( 'NONE', #968, .T. ) ;
#200 = DIRECTION ( 'NONE',  ( 0.000000000000000000, 0.000000000000000000, -1.000000000000000000 ) ) ;
#201 = EDGE_CURVE ( 'NONE', #172, #1028, #651, .T. ) ;
#202 = CARTESIAN_POINT ( 'NONE',  ( 20.00000000000000000, 3.000000000000000000, 25.49999999999999289 ) ) ;
#203 = DIRECTION ( 'NONE',  ( -0.000000000000000000, 1.000000000000000000, -5.782411586589356653E-16 ) ) ;
#204 = CARTESIAN_POINT ( 'NONE',  ( 30.49999999999999645, 7.000000000000000000, 6.999999999999995559 ) ) ;
#205 = EDGE_CURVE ( 'NONE', #1282, #1060, #379, .T. ) ;
#206 = AXIS2_PLACEMENT_3D ( 'NONE', #136, #56, #456 ) ;
#207 = FACE_OUTER_BOUND ( 'NONE', #1199, .T. ) ;
#208 = DIRECTION ( 'NONE',  ( 0.000000000000000000, 0.000000000000000000, 1.000000000000000000 ) ) ;
#209 = LINE ( 'NONE', #615, #1024 ) ;
#210 = DIRECTION ( 'NONE',  ( -1.137523590804463822E-16, 0.000000000000000000, -1.000000000000000000 ) ) ;
#211 = FACE_OUTER_BOUND ( 'NONE', #689, .T. ) ;
#212 = EDGE_CURVE ( 'NONE', #1182, #484, #167, .T. ) ;
#213 = VECTOR ( 'NONE', #803, 1000.000000000000000 ) ;
#214 = APPROVAL_STATUS ( 'not_yet_approved' ) ;
#215 = ORIENTED_EDGE ( 'NONE', *, *, #164, .T. ) ;
#216 = DIRECTION ( 'NONE',  ( 0.000000000000000000, 0.000000000000000000, 1.000000000000000000 ) ) ;
#217 = DIRECTION ( 'NONE',  ( 0.000000000000000000, 1.000000000000000000, -5.782411586589356653E-16 ) ) ;
#218 = FACE_OUTER_BOUND ( 'NONE', #350, .T. ) ;
#219 = AXIS2_PLACEMENT_3D ( 'NONE', #596, #1000, #1286 ) ;
#220 = FACE_BOUND ( 'NONE', #841, .T. ) ;
#221 = LINE ( 'NONE', #518, #9 ) ;
#222 = LINE ( 'NONE', #525, #783 ) ;
#223 = VERTEX_POINT ( 'NONE', #782 ) ;
#224 = EDGE_CURVE ( 'NONE', #1162, #752, #400, .T. ) ;
#225 = LINE ( 'NONE', #633, #622 ) ;
#226 = DIRECTION ( 'NONE',  ( -0.000000000000000000, 0.000000000000000000, -1.000000000000000000 ) ) ;
#227 = VECTOR ( 'NONE', #600, 1000.000000000000000 ) ;
#228 = EDGE_CURVE ( 'NONE', #655, #975, #1198, .T. ) ;
#229 = CARTESIAN_POINT ( 'NONE',  ( 0.000000000000000000, 0.000000000000000000, -15.00000000000000000 ) ) ;
#230 = ORIENTED_EDGE ( 'NONE', *, *, #1121, .T. ) ;
#231 = CARTESIAN_POINT ( 'NONE',  ( -25.00000000000000000, 0.000000000000000000, 20.00000000000000355 ) ) ;
#232 = CARTESIAN_POINT ( 'NONE',  ( -32.99999999999999289, 0.000000000000000000, 28.00000000000000355 ) ) ;
#233 = VECTOR ( 'NONE', #457, 1000.000000000000000 ) ;
#234 = FACE_OUTER_BOUND ( 'NONE', #943, .T. ) ;
#235 = VECTOR ( 'NONE', #272, 1000.000000000000000 ) ;
#236 = CARTESIAN_POINT ( 'NONE',  ( 33.00000000000000711, 10.00000000000000000, -28.00000000000000355 ) ) ;
#237 = CARTESIAN_POINT ( 'NONE',  ( -20.00000000000000000, 3.000000000000000000, 15.00000000000000000 ) ) ;
#238 = ORIENTED_EDGE ( 'NONE', *, *, #87, .F. ) ;
#239 = AXIS2_PLACEMENT_3D ( 'NONE', #312, #937, #216 ) ;
#240 = CARTESIAN_POINT ( 'NONE',  ( 20.00000000000000000, 0.000000000000000000, 25.49999999999999289 ) ) ;
#241 = DIRECTION ( 'NONE',  ( 0.000000000000000000, 0.000000000000000000, 1.000000000000000000 ) ) ;
#242 = VECTOR ( 'NONE', #12, 1000.000000000000000 ) ;
#243 = SHAPE_DEFINITION_REPRESENTATION ( #1179, #504 ) ;
#244 = ORIENTED_EDGE ( 'NONE', *, *, #184, .F. ) ;
#245 = CARTESIAN_POINT ( 'NONE',  ( 25.00000000000000000, 3.000000000000000000, 19.99999999999999645 ) ) ;
#246 = ORIENTED_EDGE ( 'NONE', *, *, #576, .F. ) ;
#247 = ADVANCED_FACE ( 'NONE', ( #488 ), #65, .T. ) ;
#248 = LINE ( 'NONE', #144, #523 ) ;
#249 = LINE ( 'NONE', #657, #299 ) ;
#250 = ORIENTED_EDGE ( 'NONE', *, *, #636, .T. ) ;
#251 = ORIENTED_EDGE ( 'NONE', *, *, #770, .T. ) ;
#252 = AXIS2_PLACEMENT_3D ( 'NONE', #19, #1014, #909 ) ;
#253 = DIRECTION ( 'NONE',  ( -0.000000000000000000, 1.000000000000000000, -0.000000000000000000 ) ) ;
#254 = FACE_OUTER_BOUND ( 'NONE', #891, .T. ) ;
#255 = FACE_OUTER_BOUND ( 'NONE', #665, .T. ) ;
#256 = CARTESIAN_POINT ( 'NONE',  ( 33.00000000000000711, 0.000000000000000000, 27.99999999999999645 ) ) ;
#257 = ORIENTED_EDGE ( 'NONE', *, *, #627, .F. ) ;
#258 = ORIENTED_EDGE ( 'NONE', *, *, #428, .T. ) ;
#259 = ORIENTED_EDGE ( 'NONE', *, *, #962, .F. ) ;
#260 = EDGE_CURVE ( 'NONE', #526, #882, #1104, .T. ) ;
#261 = CARTESIAN_POINT ( 'NONE',  ( 33.00000000000000711, 10.00000000000000000, 27.99999999999999645 ) ) ;
#262 = DIRECTION ( 'NONE',  ( -0.000000000000000000, -0.000000000000000000, 1.000000000000000000 ) ) ;
#263 = CARTESIAN_POINT ( 'NONE',  ( 0.000000000000000000, 3.000000000000000000, 0.000000000000000000 ) ) ;
#264 = DIRECTION ( 'NONE',  ( 0.000000000000000000, 0.000000000000000000, -1.000000000000000000 ) ) ;
#265 = ORIENTED_EDGE ( 'NONE', *, *, #755, .T. ) ;
#266 = ORIENTED_EDGE ( 'NONE', *, *, #276, .F. ) ;
#267 = VERTEX_POINT ( 'NONE', #1295 ) ;
#268 = VERTEX_POINT ( 'NONE', #974 ) ;
#269 = ORIENTED_EDGE ( 'NONE', *, *, #620, .T. ) ;
#270 = VERTEX_POINT ( 'NONE', #1089 ) ;
#271 = DIRECTION ( 'NONE',  ( 0.000000000000000000, 1.000000000000000000, 0.000000000000000000 ) ) ;
#272 = DIRECTION ( 'NONE',  ( -0.000000000000000000, 1.000000000000000000, -0.000000000000000000 ) ) ;
#273 = EDGE_LOOP ( 'NONE', ( #4, #1195, #257, #588 ) ) ;
#274 = ORIENTED_EDGE ( 'NONE', *, *, #524, .F. ) ;
#275 = EDGE_LOOP ( 'NONE', ( #215, #320, #462, #742 ) ) ;
#276 = EDGE_CURVE ( 'NONE', #1073, #62, #688, .T. ) ;
#277 = EDGE_LOOP ( 'NONE', ( #40, #354, #453, #1284 ) ) ;
#278 = EDGE_CURVE ( 'NONE', #1188, #1047, #477, .T. ) ;
#279 = ORIENTED_EDGE ( 'NONE', *, *, #900, .T. ) ;
#280 = LINE ( 'NONE', #476, #1317 ) ;
#281 = DIRECTION ( 'NONE',  ( -0.000000000000000000, 1.000000000000000000, -0.000000000000000000 ) ) ;
#282 = VERTEX_POINT ( 'NONE', #192 ) ;
#283 = VECTOR ( 'NONE', #253, 1000.000000000000000 ) ;
#284 = DIRECTION ( 'NONE',  ( 0.000000000000000000, 0.000000000000000000, -1.000000000000000000 ) ) ;
#285 = DIRECTION ( 'NONE',  ( 1.000000000000000000, 0.000000000000000000, -1.137523590804463822E-16 ) ) ;
#286 = AXIS2_PLACEMENT_3D ( 'NONE', #590, #264, #85 ) ;
#287 = CIRCLE ( 'NONE', #239, 1.600000000000000755 ) ;
#288 = LINE ( 'NONE', #707, #213 ) ;
#289 = CARTESIAN_POINT ( 'NONE',  ( 0.000000000000000000, 0.000000000000000000, 15.00000000000000000 ) ) ;
#290 = ADVANCED_FACE ( 'NONE', ( #1307 ), #692, .F. ) ;
#291 = DIRECTION ( 'NONE',  ( 0.000000000000000000, 0.000000000000000000, -1.000000000000000000 ) ) ;
#292 = LINE ( 'NONE', #1079, #869 ) ;
#293 = AXIS2_PLACEMENT_3D ( 'NONE', #999, #1005, #1294 ) ;
#294 = PERSON_AND_ORGANIZATION_ROLE ( 'creator' ) ;
#295 = ADVANCED_FACE ( 'NONE', ( #384 ), #1202, .F. ) ;
#296 = DIRECTION ( 'NONE',  ( -1.000000000000000000, 0.000000000000000000, 0.000000000000000000 ) ) ;
#297 = CC_DESIGN_APPROVAL ( #896, ( #72 ) ) ;
#298 = DIRECTION ( 'NONE',  ( -0.000000000000000000, 1.000000000000000000, -0.000000000000000000 ) ) ;
#299 = VECTOR ( 'NONE', #765, 1000.000000000000000 ) ;
#300 = UNCERTAINTY_MEASURE_WITH_UNIT (LENGTH_MEASURE( 1.000000000000000082E-05 ), #1113, 'distance_accuracy_value', 'NONE');
#301 = EDGE_CURVE ( 'NONE', #1092, #526, #916, .T. ) ;
#302 = LINE ( 'NONE', #1126, #107 ) ;
#303 = AXIS2_PLACEMENT_3D ( 'NONE', #920, #226, #331 ) ;
#304 = CARTESIAN_POINT ( 'NONE',  ( 25.00000000000000000, 3.000000000000000000, -20.00000000000000355 ) ) ;
#305 = DATE_TIME_ROLE ( 'classification_date' ) ;
#306 = DIRECTION ( 'NONE',  ( 1.000000000000000000, -0.000000000000000000, -0.000000000000000000 ) ) ;
#307 = CARTESIAN_POINT ( 'NONE',  ( 0.000000000000000000, 0.000000000000000000, 15.00000000000000000 ) ) ;
#308 = AXIS2_PLACEMENT_3D ( 'NONE', #1128, #806, #1235 ) ;
#309 = ADVANCED_FACE ( 'NONE', ( #370 ), #775, .F. ) ;
#310 = CARTESIAN_POINT ( 'NONE',  ( 33.00000000000000711, 7.000000000000000000, -7.000000000000002665 ) ) ;
#311 = DIRECTION ( 'NONE',  ( -0.000000000000000000, 1.000000000000000000, -0.000000000000000000 ) ) ;
#312 = CARTESIAN_POINT ( 'NONE',  ( 25.00000000000000000, 0.000000000000000000, 19.99999999999999645 ) ) ;
#313 = DIRECTION ( 'NONE',  ( 1.000000000000000000, 0.000000000000000000, 0.000000000000000000 ) ) ;
#314 = DIRECTION ( 'NONE',  ( 0.000000000000000000, -0.000000000000000000, 1.000000000000000000 ) ) ;
#315 = PERSON_AND_ORGANIZATION_ROLE ( 'creator' ) ;
#316 = MANIFOLD_SOLID_BREP ( '切除-拉伸7', #3 ) ;
#317 = CARTESIAN_POINT ( 'NONE',  ( 33.00000000000000711, 10.00000000000000000, -7.000000000000004441 ) ) ;
#318 = FACE_OUTER_BOUND ( 'NONE', #1050, .T. ) ;
#319 = LINE ( 'NONE', #229, #597 ) ;
#320 = ORIENTED_EDGE ( 'NONE', *, *, #395, .F. ) ;
#321 = ADVANCED_FACE ( 'NONE', ( #183 ), #323, .F. ) ;
#322 = EDGE_LOOP ( 'NONE', ( #761, #363, #649, #850, #575, #39, #337, #134, #520, #681, #572, #773 ) ) ;
#323 = PLANE ( 'NONE',  #8 ) ;
#324 = CARTESIAN_POINT ( 'NONE',  ( 0.000000000000000000, 3.000000000000000000, -15.00000000000000000 ) ) ;
#325 = DIRECTION ( 'NONE',  ( -0.000000000000000000, -1.000000000000000000, -0.000000000000000000 ) ) ;
#326 = VERTEX_POINT ( 'NONE', #317 ) ;
#327 = DIRECTION ( 'NONE',  ( 0.000000000000000000, -1.000000000000000000, 0.000000000000000000 ) ) ;
#328 = DIRECTION ( 'NONE',  ( 0.000000000000000000, 1.000000000000000000, 0.000000000000000000 ) ) ;
#329 = DIRECTION ( 'NONE',  ( 0.000000000000000000, -1.000000000000000000, -0.000000000000000000 ) ) ;
#330 = EDGE_CURVE ( 'NONE', #464, #715, #1142, .T. ) ;
#331 = DIRECTION ( 'NONE',  ( -1.000000000000000000, 0.000000000000000000, 0.000000000000000000 ) ) ;
#332 = AXIS2_PLACEMENT_3D ( 'NONE', #89, #781, #1285 ) ;
#333 = LINE ( 'NONE', #31, #14 ) ;
#334 = EDGE_LOOP ( 'NONE', ( #673, #951, #1059, #36 ) ) ;
#335 = CYLINDRICAL_SURFACE ( 'NONE', #206, 1.600000000000000755 ) ;
#336 = LINE ( 'NONE', #57, #129 ) ;
#337 = ORIENTED_EDGE ( 'NONE', *, *, #386, .F. ) ;
#338 = CIRCLE ( 'NONE', #1256, 1.600000000000000755 ) ;
#339 = VECTOR ( 'NONE', #981, 1000.000000000000000 ) ;
#340 = DIRECTION ( 'NONE',  ( -0.000000000000000000, 1.000000000000000000, -0.000000000000000000 ) ) ;
#341 = EDGE_CURVE ( 'NONE', #1188, #972, #1035, .T. ) ;
#342 = ORIENTED_EDGE ( 'NONE', *, *, #606, .T. ) ;
#343 = AXIS2_PLACEMENT_3D ( 'NONE', #1190, #680, #77 ) ;
#344 = FACE_OUTER_BOUND ( 'NONE', #666, .T. ) ;
#345 = CARTESIAN_POINT ( 'NONE',  ( 30.49999999999999645, 3.000000000000000000, 15.00000000000000000 ) ) ;
#346 = EDGE_LOOP ( 'NONE', ( #1074, #244, #469, #541 ) ) ;
#347 = AXIS2_PLACEMENT_3D ( 'NONE', #839, #1036, #104 ) ;
#348 = ORIENTED_EDGE ( 'NONE', *, *, #97, .F. ) ;
#349 = DIRECTION ( 'NONE',  ( 0.000000000000000000, 0.000000000000000000, 1.000000000000000000 ) ) ;
#350 = EDGE_LOOP ( 'NONE', ( #1291, #471, #169, #1186 ) ) ;
#351 = ADVANCED_FACE ( 'NONE', ( #234 ), #521, .F. ) ;
#352 = FACE_OUTER_BOUND ( 'NONE', #639, .T. ) ;
#353 = CARTESIAN_POINT ( 'NONE',  ( -30.50000000000000355, 3.000000000000000000, 25.50000000000000000 ) ) ;
#354 = ORIENTED_EDGE ( 'NONE', *, *, #598, .F. ) ;
#355 = ORIENTED_EDGE ( 'NONE', *, *, #188, .T. ) ;
#356 = ORIENTED_EDGE ( 'NONE', *, *, #201, .F. ) ;
#357 = DIRECTION ( 'NONE',  ( 0.000000000000000000, 1.000000000000000000, 0.000000000000000000 ) ) ;
#358 = VERTEX_POINT ( 'NONE', #734 ) ;
#359 = PLANE ( 'NONE',  #194 ) ;
#360 = DIRECTION ( 'NONE',  ( 0.000000000000000000, 1.000000000000000000, 0.000000000000000000 ) ) ;
#361 = ADVANCED_FACE ( 'NONE', ( #1136, #220, #115, #721, #644, #130 ), #923, .F. ) ;
#362 = EDGE_CURVE ( 'NONE', #868, #1192, #410, .T. ) ;
#363 = ORIENTED_EDGE ( 'NONE', *, *, #818, .T. ) ;
#364 = VERTEX_POINT ( 'NONE', #838 ) ;
#365 = ORIENTED_EDGE ( 'NONE', *, *, #341, .T. ) ;
#366 = LOCAL_TIME ( 15, 37, 31.00000000000000000, #514 ) ;
#367 = VERTEX_POINT ( 'NONE', #1228 ) ;
#368 = ORIENTED_EDGE ( 'NONE', *, *, #962, .T. ) ;
#369 = LINE ( 'NONE', #1197, #706 ) ;
#370 = FACE_OUTER_BOUND ( 'NONE', #677, .T. ) ;
#371 = ORIENTED_EDGE ( 'NONE', *, *, #745, .T. ) ;
#372 = ORIENTED_EDGE ( 'NONE', *, *, #1185, .T. ) ;
#373 = EDGE_CURVE ( 'NONE', #879, #1260, #287, .T. ) ;
#374 = ORIENTED_EDGE ( 'NONE', *, *, #1245, .T. ) ;
#375 = AXIS2_PLACEMENT_3D ( 'NONE', #522, #406, #811 ) ;
#376 = ORIENTED_EDGE ( 'NONE', *, *, #1237, .T. ) ;
#377 = ORIENTED_EDGE ( 'NONE', *, *, #87, .T. ) ;
#378 = DIRECTION ( 'NONE',  ( 0.000000000000000000, 0.000000000000000000, -1.000000000000000000 ) ) ;
#379 = LINE ( 'NONE', #1303, #235 ) ;
#380 = ORIENTED_EDGE ( 'NONE', *, *, #987, .F. ) ;
#381 = ORIENTED_EDGE ( 'NONE', *, *, #362, .F. ) ;
#382 = VECTOR ( 'NONE', #433, 1000.000000000000000 ) ;
#383 = DIRECTION ( 'NONE',  ( 1.000000000000000000, -0.000000000000000000, -0.000000000000000000 ) ) ;
#384 = FACE_OUTER_BOUND ( 'NONE', #1252, .T. ) ;
#385 = VERTEX_POINT ( 'NONE', #621 ) ;
#386 = EDGE_CURVE ( 'NONE', #124, #1296, #930, .T. ) ;
#387 = VECTOR ( 'NONE', #1219, 1000.000000000000000 ) ;
#388 = LINE ( 'NONE', #793, #67 ) ;
#389 = FACE_OUTER_BOUND ( 'NONE', #760, .T. ) ;
#390 = CARTESIAN_POINT ( 'NONE',  ( -30.50000000000000355, 3.000000000000000000, -0.4999999999999970024 ) ) ;
#391 = EDGE_CURVE ( 'NONE', #1262, #464, #726, .T. ) ;
#392 = PERSON_AND_ORGANIZATION ( #583, #1214 ) ;
#393 = CARTESIAN_POINT ( 'NONE',  ( 0.000000000000000000, 0.000000000000000000, -15.00000000000000000 ) ) ;
#394 = DIRECTION ( 'NONE',  ( 0.000000000000000000, 0.000000000000000000, -1.000000000000000000 ) ) ;
#395 = EDGE_CURVE ( 'NONE', #367, #625, #225, .T. ) ;
#396 = VECTOR ( 'NONE', #394, 1000.000000000000000 ) ;
#397 = FACE_OUTER_BOUND ( 'NONE', #1290, .T. ) ;
#398 = CARTESIAN_POINT ( 'NONE',  ( -25.00000000000000000, 0.000000000000000000, -18.39999999999999503 ) ) ;
#399 = CIRCLE ( 'NONE', #805, 1.600000000000000755 ) ;
#400 = CIRCLE ( 'NONE', #990, 1.600000000000000755 ) ;
#401 = CALENDAR_DATE ( 2026, 30, 8 ) ;
#402 = ADVANCED_FACE ( 'NONE', ( #29 ), #429, .F. ) ;
#403 = DIRECTION ( 'NONE',  ( 0.000000000000000000, 0.000000000000000000, 1.000000000000000000 ) ) ;
#404 = ADVANCED_FACE ( 'NONE', ( #92 ), #1008, .F. ) ;
#405 = VECTOR ( 'NONE', #510, 1000.000000000000000 ) ;
#406 = DIRECTION ( 'NONE',  ( 0.000000000000000000, 1.000000000000000000, 0.000000000000000000 ) ) ;
#407 = AXIS2_PLACEMENT_3D ( 'NONE', #577, #983, #284 ) ;
#408 = CARTESIAN_POINT ( 'NONE',  ( -32.99999999999999289, 10.00000000000000000, -0.4999999999999970024 ) ) ;
#409 = PERSON_AND_ORGANIZATION ( #583, #1214 ) ;
#410 = LINE ( 'NONE', #1150, #1205 ) ;
#411 = LINE ( 'NONE', #1229, #1118 ) ;
#412 = VECTOR ( 'NONE', #142, 1000.000000000000000 ) ;
#413 = DIRECTION ( 'NONE',  ( 0.000000000000000000, -0.000000000000000000, 1.000000000000000000 ) ) ;
#414 = DATE_AND_TIME ( #1015, #1041 ) ;
#415 = CARTESIAN_POINT ( 'NONE',  ( 20.00000000000000000, 3.000000000000000000, 0.000000000000000000 ) ) ;
#416 = CARTESIAN_POINT ( 'NONE',  ( -20.00000000000000000, 0.000000000000000000, 0.000000000000000000 ) ) ;
#417 = EDGE_CURVE ( 'NONE', #1296, #715, #1212, .T. ) ;
#418 = APPROVAL_PERSON_ORGANIZATION ( #392, #1298, #508 ) ;
#419 = CARTESIAN_POINT ( 'NONE',  ( 0.000000000000000000, 3.000000000000000000, 0.000000000000000000 ) ) ;
#420 = VERTEX_POINT ( 'NONE', #1313 ) ;
#421 = ORIENTED_EDGE ( 'NONE', *, *, #35, .F. ) ;
#422 = DIRECTION ( 'NONE',  ( 0.000000000000000000, 0.000000000000000000, -1.000000000000000000 ) ) ;
#423 = DIRECTION ( 'NONE',  ( 0.000000000000000000, 0.000000000000000000, -1.000000000000000000 ) ) ;
#424 = DIRECTION ( 'NONE',  ( 0.000000000000000000, 0.000000000000000000, -1.000000000000000000 ) ) ;
#425 = VERTEX_POINT ( 'NONE', #899 ) ;
#426 = FACE_BOUND ( 'NONE', #592, .T. ) ;
#427 = CARTESIAN_POINT ( 'NONE',  ( -20.00000000000000000, 0.000000000000000000, -25.50000000000000000 ) ) ;
#428 = EDGE_CURVE ( 'NONE', #267, #438, #697, .T. ) ;
#429 = PLANE ( 'NONE',  #52 ) ;
#430 = CARTESIAN_POINT ( 'NONE',  ( -25.00000000000000000, 0.000000000000000000, 18.40000000000000213 ) ) ;
#431 = DIRECTION ( 'NONE',  ( 0.000000000000000000, 0.000000000000000000, -1.000000000000000000 ) ) ;
#432 = ORIENTED_EDGE ( 'NONE', *, *, #1129, .F. ) ;
#433 = DIRECTION ( 'NONE',  ( -1.000000000000000000, 0.000000000000000000, 1.137523590804463822E-16 ) ) ;
#434 = DIRECTION ( 'NONE',  ( 0.000000000000000000, 0.000000000000000000, 1.000000000000000000 ) ) ;
#435 = ORIENTED_EDGE ( 'NONE', *, *, #1230, .F. ) ;
#436 = EDGE_CURVE ( 'NONE', #80, #69, #710, .T. ) ;
#437 = CARTESIAN_POINT ( 'NONE',  ( -40.50000000000000000, 10.00000000000000000, -14.49999999999999645 ) ) ;
#438 = VERTEX_POINT ( 'NONE', #493 ) ;
#439 = PLANE ( 'NONE',  #756 ) ;
#440 = CARTESIAN_POINT ( 'NONE',  ( -30.50000000000000355, 0.000000000000000000, 15.00000000000000000 ) ) ;
#441 = ORIENTED_EDGE ( 'NONE', *, *, #188, .F. ) ;
#442 = APPROVAL_DATE_TIME ( #959, #896 ) ;
#443 = EDGE_LOOP ( 'NONE', ( #659, #844, #441, #43, #1173, #368, #1236, #790 ) ) ;
#444 = AXIS2_PLACEMENT_3D ( 'NONE', #1023, #907, #1318 ) ;
#445 = PRODUCT ( 'box', 'box', '', ( #813 ) ) ;
#446 = DIRECTION ( 'NONE',  ( 0.000000000000000000, 1.000000000000000000, 0.000000000000000000 ) ) ;
#447 = EDGE_CURVE ( 'NONE', #550, #1078, #593, .T. ) ;
#448 = ORIENTED_EDGE ( 'NONE', *, *, #373, .T. ) ;
#449 = VECTOR ( 'NONE', #830, 1000.000000000000000 ) ;
#450 = FACE_OUTER_BOUND ( 'NONE', #180, .T. ) ;
#451 = DIRECTION ( 'NONE',  ( 1.000000000000000000, -0.000000000000000000, -1.051347561198064835E-16 ) ) ;
#452 = ORIENTED_EDGE ( 'NONE', *, *, #826, .F. ) ;
#453 = ORIENTED_EDGE ( 'NONE', *, *, #260, .T. ) ;
#454 = DIRECTION ( 'NONE',  ( -1.000000000000000000, 0.000000000000000000, 1.051347561198064958E-16 ) ) ;
#455 = CARTESIAN_POINT ( 'NONE',  ( -30.50000000000000355, 3.000000000000000000, 25.50000000000000000 ) ) ;
#456 = DIRECTION ( 'NONE',  ( 0.000000000000000000, 0.000000000000000000, 1.000000000000000000 ) ) ;
#457 = DIRECTION ( 'NONE',  ( -0.000000000000000000, 1.000000000000000000, -0.000000000000000000 ) ) ;
#458 = VERTEX_POINT ( 'NONE', #204 ) ;
#459 = ORIENTED_EDGE ( 'NONE', *, *, #1122, .F. ) ;
#460 = VERTEX_POINT ( 'NONE', #911 ) ;
#461 = LINE ( 'NONE', #1077, #138 ) ;
#462 = ORIENTED_EDGE ( 'NONE', *, *, #646, .F. ) ;
#463 = VECTOR ( 'NONE', #494, 1000.000000000000000 ) ;
#464 = VERTEX_POINT ( 'NONE', #599 ) ;
#465 = ADVANCED_FACE ( 'NONE', ( #389 ), #795, .F. ) ;
#466 = DIRECTION ( 'NONE',  ( -0.000000000000000000, -1.000000000000000000, -0.000000000000000000 ) ) ;
#467 = CARTESIAN_POINT ( 'NONE',  ( 30.49999999999999645, 3.000000000000000000, 25.49999999999999289 ) ) ;
#468 = ORIENTED_EDGE ( 'NONE', *, *, #205, .F. ) ;
#469 = ORIENTED_EDGE ( 'NONE', *, *, #755, .F. ) ;
#470 = AXIS2_PLACEMENT_3D ( 'NONE', #33, #965, #1258 ) ;
#471 = ORIENTED_EDGE ( 'NONE', *, *, #132, .F. ) ;
#472 = AXIS2_PLACEMENT_3D ( 'NONE', #42, #1149, #434 ) ;
#473 = ORIENTED_EDGE ( 'NONE', *, *, #1019, .T. ) ;
#474 = VECTOR ( 'NONE', #159, 1000.000000000000000 ) ;
#475 = PLANE ( 'NONE',  #1114 ) ;
#476 = CARTESIAN_POINT ( 'NONE',  ( -30.50000000000000355, 3.000000000000000000, -25.50000000000000000 ) ) ;
#477 = LINE ( 'NONE', #175, #75 ) ;
#478 = ORIENTED_EDGE ( 'NONE', *, *, #524, .T. ) ;
#479 = ORIENTED_EDGE ( 'NONE', *, *, #545, .T. ) ;
#480 = VECTOR ( 'NONE', #1137, 1000.000000000000000 ) ;
#481 = ORIENTED_EDGE ( 'NONE', *, *, #1034, .T. ) ;
#482 = DIRECTION ( 'NONE',  ( 0.000000000000000000, 0.000000000000000000, -1.000000000000000000 ) ) ;
#483 = DIRECTION ( 'NONE',  ( 0.000000000000000000, 0.000000000000000000, 1.000000000000000000 ) ) ;
#484 = VERTEX_POINT ( 'NONE', #1204 ) ;
#485 = EDGE_CURVE ( 'NONE', #972, #1192, #288, .T. ) ;
#486 = VECTOR ( 'NONE', #1250, 1000.000000000000000 ) ;
#487 = LINE ( 'NONE', #1096, #884 ) ;
#488 = FACE_OUTER_BOUND ( 'NONE', #1301, .T. ) ;
#489 = DIRECTION ( 'NONE',  ( 0.000000000000000000, -5.782411586589356653E-16, -1.000000000000000000 ) ) ;
#490 = EDGE_CURVE ( 'NONE', #460, #1262, #1016, .T. ) ;
#491 = CARTESIAN_POINT ( 'NONE',  ( -30.50000000000000355, 0.000000000000000000, 15.00000000000000000 ) ) ;
#492 =( NAMED_UNIT ( * ) PLANE_ANGLE_UNIT ( ) SI_UNIT ( $, .RADIAN. ) );
#493 = CARTESIAN_POINT ( 'NONE',  ( -30.50000000000000355, 3.000000000000000000, 25.50000000000000000 ) ) ;
#494 = DIRECTION ( 'NONE',  ( -0.000000000000000000, 1.000000000000000000, -0.000000000000000000 ) ) ;
#495 = DIRECTION ( 'NONE',  ( 1.000000000000000000, 0.000000000000000000, 0.000000000000000000 ) ) ;
#496 = PLANE ( 'NONE',  #444 ) ;
#497 = CYLINDRICAL_SURFACE ( 'NONE', #122, 1.600000000000000755 ) ;
#498 = EDGE_CURVE ( 'NONE', #171, #763, #1110, .T. ) ;
#499 = AXIS2_PLACEMENT_3D ( 'NONE', #419, #1010, #314 ) ;
#500 = ADVANCED_FACE ( 'NONE', ( #397 ), #1116, .T. ) ;
#501 = COORDINATED_UNIVERSAL_TIME_OFFSET ( 8, 0, .AHEAD. ) ;
#502 = DIRECTION ( 'NONE',  ( 0.000000000000000000, 0.000000000000000000, 1.000000000000000000 ) ) ;
#503 = FACE_OUTER_BOUND ( 'NONE', #538, .T. ) ;
#504 = ADVANCED_BREP_SHAPE_REPRESENTATION ( 'box', ( #316, #821 ), #1006 ) ;
#505 = VECTOR ( 'NONE', #660, 1000.000000000000000 ) ;
#506 = LINE ( 'NONE', #112, #815 ) ;
#507 = VECTOR ( 'NONE', #948, 1000.000000000000000 ) ;
#508 = APPROVAL_ROLE ( '' ) ;
#509 = EDGE_CURVE ( 'NONE', #60, #460, #100, .T. ) ;
#510 = DIRECTION ( 'NONE',  ( -0.000000000000000000, -0.000000000000000000, 1.000000000000000000 ) ) ;
#511 = VECTOR ( 'NONE', #716, 1000.000000000000000 ) ;
#512 = FACE_OUTER_BOUND ( 'NONE', #334, .T. ) ;
#513 = CARTESIAN_POINT ( 'NONE',  ( 30.49999999999999645, 0.000000000000000000, -15.00000000000000000 ) ) ;
#514 = COORDINATED_UNIVERSAL_TIME_OFFSET ( 8, 0, .AHEAD. ) ;
#515 = ORIENTED_EDGE ( 'NONE', *, *, #102, .F. ) ;
#516 = EDGE_CURVE ( 'NONE', #326, #655, #810, .T. ) ;
#517 = CARTESIAN_POINT ( 'NONE',  ( -30.50000000000000355, 3.000000000000000000, 25.50000000000000000 ) ) ;
#518 = CARTESIAN_POINT ( 'NONE',  ( 30.49999999999999645, 7.000000000000000000, 25.49999999999999289 ) ) ;
#519 = CARTESIAN_POINT ( 'NONE',  ( -40.50000000000000000, 3.000000000000000000, -0.4999999999999970024 ) ) ;
#520 = ORIENTED_EDGE ( 'NONE', *, *, #509, .F. ) ;
#521 = PLANE ( 'NONE',  #1101 ) ;
#522 = CARTESIAN_POINT ( 'NONE',  ( 0.000000000000000000, 3.000000000000000000, 0.000000000000000000 ) ) ;
#523 = VECTOR ( 'NONE', #935, 1000.000000000000000 ) ;
#524 = EDGE_CURVE ( 'NONE', #1078, #1162, #605, .T. ) ;
#525 = CARTESIAN_POINT ( 'NONE',  ( 30.49999999999999645, 0.000000000000000000, 15.00000000000000000 ) ) ;
#526 = VERTEX_POINT ( 'NONE', #1013 ) ;
#527 = VECTOR ( 'NONE', #165, 1000.000000000000000 ) ;
#528 = CARTESIAN_POINT ( 'NONE',  ( 30.49999999999999645, 10.00000000000000000, -25.50000000000000355 ) ) ;
#529 = CARTESIAN_POINT ( 'NONE',  ( 25.00000000000000000, 3.000000000000000000, 19.99999999999999645 ) ) ;
#530 = DIRECTION ( 'NONE',  ( -1.000000000000000000, 0.000000000000000000, -0.000000000000000000 ) ) ;
#531 = DIRECTION ( 'NONE',  ( -1.000000000000000000, 0.000000000000000000, 1.137523590804463822E-16 ) ) ;
#532 = VECTOR ( 'NONE', #1151, 1000.000000000000000 ) ;
#533 = LINE ( 'NONE', #1243, #894 ) ;
#534 = ORIENTED_EDGE ( 'NONE', *, *, #91, .F. ) ;
#535 = ADVANCED_FACE ( 'NONE', ( #1224 ), #496, .F. ) ;
#536 = LINE ( 'NONE', #559, #945 ) ;
#537 = LINE ( 'NONE', #663, #233 ) ;
#538 = EDGE_LOOP ( 'NONE', ( #374, #1288, #887, #771, #71, #1033, #58, #251 ) ) ;
#539 = LINE ( 'NONE', #1068, #46 ) ;
#540 = CARTESIAN_POINT ( 'NONE',  ( 33.00000000000000711, 7.000000000000000000, 6.999999999999995559 ) ) ;
#541 = ORIENTED_EDGE ( 'NONE', *, *, #391, .T. ) ;
#542 = CIRCLE ( 'NONE', #1300, 1.600000000000000755 ) ;
#543 = DIRECTION ( 'NONE',  ( -1.000000000000000000, 0.000000000000000000, 0.000000000000000000 ) ) ;
#544 = CARTESIAN_POINT ( 'NONE',  ( 33.00000000000000711, 10.00000000000000000, 6.999999999999995559 ) ) ;
#545 = EDGE_CURVE ( 'NONE', #458, #1184, #302, .T. ) ;
#546 = ORIENTED_EDGE ( 'NONE', *, *, #63, .F. ) ;
#547 = ORIENTED_EDGE ( 'NONE', *, *, #836, .F. ) ;
#548 = EDGE_CURVE ( 'NONE', #1146, #21, #209, .T. ) ;
#549 = DIRECTION ( 'NONE',  ( 0.000000000000000000, 0.000000000000000000, 1.000000000000000000 ) ) ;
#550 = VERTEX_POINT ( 'NONE', #645 ) ;
#551 = CYLINDRICAL_SURFACE ( 'NONE', #637, 1.600000000000000755 ) ;
#552 = LINE ( 'NONE', #440, #804 ) ;
#553 = ORIENTED_EDGE ( 'NONE', *, *, #837, .F. ) ;
#554 = EDGE_LOOP ( 'NONE', ( #563, #682, #547, #1242 ) ) ;
#555 = CIRCLE ( 'NONE', #1099, 1.600000000000000755 ) ;
#556 = CC_DESIGN_PERSON_AND_ORGANIZATION_ASSIGNMENT ( #409, #902, ( #445 ) ) ;
#557 = CARTESIAN_POINT ( 'NONE',  ( 25.00000000000000000, 0.000000000000000000, 19.99999999999999645 ) ) ;
#558 = CARTESIAN_POINT ( 'NONE',  ( 30.49999999999999645, 10.00000000000000000, 25.49999999999999289 ) ) ;
#559 = CARTESIAN_POINT ( 'NONE',  ( -30.50000000000000355, 10.00000000000000000, 25.50000000000000000 ) ) ;
#560 = DIRECTION ( 'NONE',  ( 0.000000000000000000, 0.000000000000000000, 1.000000000000000000 ) ) ;
#561 = ORIENTED_EDGE ( 'NONE', *, *, #971, .F. ) ;
#562 = EDGE_LOOP ( 'NONE', ( #356, #79, #1257, #1273, #1084, #1169, #1175, #259 ) ) ;
#563 = ORIENTED_EDGE ( 'NONE', *, *, #827, .T. ) ;
#564 = FACE_OUTER_BOUND ( 'NONE', #275, .T. ) ;
#565 = EDGE_CURVE ( 'NONE', #21, #80, #743, .T. ) ;
#566 = EDGE_LOOP ( 'NONE', ( #153, #1155, #168, #872 ) ) ;
#567 = CARTESIAN_POINT ( 'NONE',  ( -30.50000000000000355, 3.000000000000000000, -14.49999999999999467 ) ) ;
#568 = DIRECTION ( 'NONE',  ( 0.000000000000000000, 1.000000000000000000, 0.000000000000000000 ) ) ;
#569 = ORIENTED_EDGE ( 'NONE', *, *, #1105, .T. ) ;
#570 = ORIENTED_EDGE ( 'NONE', *, *, #201, .T. ) ;
#571 = ORIENTED_EDGE ( 'NONE', *, *, #607, .F. ) ;
#572 = ORIENTED_EDGE ( 'NONE', *, *, #827, .F. ) ;
#573 = ORIENTED_EDGE ( 'NONE', *, *, #135, .F. ) ;
#574 = VECTOR ( 'NONE', #466, 1000.000000000000000 ) ;
#575 = ORIENTED_EDGE ( 'NONE', *, *, #1210, .T. ) ;
#576 = EDGE_CURVE ( 'NONE', #1260, #879, #847, .T. ) ;
#577 = CARTESIAN_POINT ( 'NONE',  ( 30.49999999999999645, 3.000000000000000000, 25.49999999999999289 ) ) ;
#578 = CARTESIAN_POINT ( 'NONE',  ( 25.00000000000000000, 0.000000000000000000, -21.60000000000000497 ) ) ;
#579 = ORIENTED_EDGE ( 'NONE', *, *, #701, .F. ) ;
#580 = ORIENTED_EDGE ( 'NONE', *, *, #905, .T. ) ;
#581 = APPLICATION_CONTEXT ( 'configuration controlled 3d designs of mechanical parts and assemblies' ) ;
#582 = ORIENTED_EDGE ( 'NONE', *, *, #1076, .F. ) ;
#583 = PERSON ( '未指定', '未指定', '未指定', ('未指定'), ('未指定'), ('未指定') ) ;
#584 = LOCAL_TIME ( 15, 37, 31.00000000000000000, #1261 ) ;
#585 = VECTOR ( 'NONE', #451, 1000.000000000000000 ) ;
#586 = ORIENTED_EDGE ( 'NONE', *, *, #386, .T. ) ;
#587 = VECTOR ( 'NONE', #893, 1000.000000000000000 ) ;
#588 = ORIENTED_EDGE ( 'NONE', *, *, #802, .F. ) ;
#589 = CARTESIAN_POINT ( 'NONE',  ( 33.00000000000000711, 10.00000000000000000, 27.99999999999999645 ) ) ;
#590 = CARTESIAN_POINT ( 'NONE',  ( -40.50000000000000000, 3.000000000000000000, -0.4999999999999970024 ) ) ;
#591 = ADVANCED_FACE ( 'NONE', ( #564 ), #1161, .F. ) ;
#592 = EDGE_LOOP ( 'NONE', ( #866, #768 ) ) ;
#593 = CIRCLE ( 'NONE', #1263, 1.600000000000000755 ) ;
#594 = VECTOR ( 'NONE', #679, 1000.000000000000000 ) ;
#595 = DIRECTION ( 'NONE',  ( 0.000000000000000000, -0.000000000000000000, 1.000000000000000000 ) ) ;
#596 = CARTESIAN_POINT ( 'NONE',  ( -25.00000000000000000, 0.000000000000000000, 20.00000000000000355 ) ) ;
#597 = VECTOR ( 'NONE', #1046, 1000.000000000000000 ) ;
#598 = EDGE_CURVE ( 'NONE', #526, #1092, #338, .T. ) ;
#599 = CARTESIAN_POINT ( 'NONE',  ( 20.00000000000000000, 3.000000000000000000, -15.00000000000000000 ) ) ;
#600 = DIRECTION ( 'NONE',  ( -0.000000000000000000, 1.000000000000000000, -0.000000000000000000 ) ) ;
#601 = LINE ( 'NONE', #95, #93 ) ;
#602 = AXIS2_PLACEMENT_3D ( 'NONE', #656, #1267, #1275 ) ;
#603 = CARTESIAN_POINT ( 'NONE',  ( -20.00000000000000000, 0.000000000000000000, 0.000000000000000000 ) ) ;
#604 = CARTESIAN_POINT ( 'NONE',  ( 25.00000000000000000, 0.000000000000000000, -18.40000000000000213 ) ) ;
#605 = LINE ( 'NONE', #103, #1132 ) ;
#606 = EDGE_CURVE ( 'NONE', #1022, #1187, #555, .T. ) ;
#607 = EDGE_CURVE ( 'NONE', #653, #1073, #861, .T. ) ;
#608 = CARTESIAN_POINT ( 'NONE',  ( 25.00000000000000000, 0.000000000000000000, -20.00000000000000355 ) ) ;
#609 = APPROVAL_STATUS ( 'not_yet_approved' ) ;
#610 = CARTESIAN_POINT ( 'NONE',  ( 23.00000000000000711, 10.00000000000000000, -7.000000000000004441 ) ) ;
#611 = FACE_OUTER_BOUND ( 'NONE', #672, .T. ) ;
#612 = CARTESIAN_POINT ( 'NONE',  ( -20.00000000000000000, 3.000000000000000000, -15.00000000000000000 ) ) ;
#613 = APPROVAL_DATE_TIME ( #1125, #1298 ) ;
#614 = VERTEX_POINT ( 'NONE', #1167 ) ;
#615 = CARTESIAN_POINT ( 'NONE',  ( 30.49999999999999645, 3.000000000000000000, 25.49999999999999289 ) ) ;
#616 = LINE ( 'NONE', #111, #917 ) ;
#617 = VECTOR ( 'NONE', #1120, 1000.000000000000000 ) ;
#618 = DIRECTION ( 'NONE',  ( 0.000000000000000000, 1.000000000000000000, 0.000000000000000000 ) ) ;
#619 = EDGE_CURVE ( 'NONE', #364, #154, #38, .T. ) ;
#620 = EDGE_CURVE ( 'NONE', #1047, #1192, #1272, .T. ) ;
#621 = CARTESIAN_POINT ( 'NONE',  ( -30.50000000000000355, 0.000000000000000000, -15.00000000000000000 ) ) ;
#622 = VECTOR ( 'NONE', #1042, 1000.000000000000000 ) ;
#623 = CARTESIAN_POINT ( 'NONE',  ( 23.00000000000000711, 7.000000000000000000, -7.000000000000002665 ) ) ;
#624 = FACE_OUTER_BOUND ( 'NONE', #143, .T. ) ;
#625 = VERTEX_POINT ( 'NONE', #845 ) ;
#626 = DIRECTION ( 'NONE',  ( 0.000000000000000000, -0.000000000000000000, 1.000000000000000000 ) ) ;
#627 = EDGE_CURVE ( 'NONE', #867, #326, #1264, .T. ) ;
#628 = PLANE ( 'NONE',  #303 ) ;
#629 = CARTESIAN_POINT ( 'NONE',  ( 20.00000000000000000, 0.000000000000000000, 0.000000000000000000 ) ) ;
#630 = ORIENTED_EDGE ( 'NONE', *, *, #836, .T. ) ;
#631 = DIRECTION ( 'NONE',  ( -0.000000000000000000, 1.000000000000000000, -0.000000000000000000 ) ) ;
#632 = CIRCLE ( 'NONE', #799, 1.600000000000000755 ) ;
#633 = CARTESIAN_POINT ( 'NONE',  ( 33.00000000000000711, 10.00000000000000000, 27.99999999999999645 ) ) ;
#634 = CC_DESIGN_DATE_AND_TIME_ASSIGNMENT ( #1216, #1223, ( #876 ) ) ;
#635 = DIRECTION ( 'NONE',  ( -0.000000000000000000, 1.000000000000000000, -0.000000000000000000 ) ) ;
#636 = EDGE_CURVE ( 'NONE', #66, #1047, #539, .T. ) ;
#637 = AXIS2_PLACEMENT_3D ( 'NONE', #231, #27, #1156 ) ;
#638 = DIRECTION ( 'NONE',  ( 0.000000000000000000, 0.000000000000000000, -1.000000000000000000 ) ) ;
#639 = EDGE_LOOP ( 'NONE', ( #767, #940, #1193, #1091 ) ) ;
#640 = VECTOR ( 'NONE', #1064, 1000.000000000000000 ) ;
#641 = DIRECTION ( 'NONE',  ( 1.000000000000000000, -0.000000000000000000, -1.137523590804463822E-16 ) ) ;
#642 = LINE ( 'NONE', #126, #507 ) ;
#643 = VECTOR ( 'NONE', #996, 1000.000000000000000 ) ;
#644 = FACE_BOUND ( 'NONE', #176, .T. ) ;
#645 = CARTESIAN_POINT ( 'NONE',  ( -25.00000000000000000, 0.000000000000000000, -21.59999999999999787 ) ) ;
#646 = EDGE_CURVE ( 'NONE', #20, #367, #156, .T. ) ;
#647 = AXIS2_PLACEMENT_3D ( 'NONE', #416, #313, #831 ) ;
#648 = CARTESIAN_POINT ( 'NONE',  ( -30.50000000000000355, 10.00000000000000000, -14.49999999999999645 ) ) ;
#649 = ORIENTED_EDGE ( 'NONE', *, *, #693, .T. ) ;
#650 = DIRECTION ( 'NONE',  ( 0.000000000000000000, 0.000000000000000000, -1.000000000000000000 ) ) ;
#651 = LINE ( 'NONE', #1071, #474 ) ;
#652 = ORIENTED_EDGE ( 'NONE', *, *, #1121, .F. ) ;
#653 = VERTEX_POINT ( 'NONE', #163 ) ;
#654 = CARTESIAN_POINT ( 'NONE',  ( 33.00000000000000711, 10.00000000000000000, -28.00000000000000355 ) ) ;
#655 = VERTEX_POINT ( 'NONE', #236 ) ;
#656 = CARTESIAN_POINT ( 'NONE',  ( -25.00000000000000000, 0.000000000000000000, -19.99999999999999645 ) ) ;
#657 = CARTESIAN_POINT ( 'NONE',  ( -20.00000000000000000, 0.000000000000000000, 0.000000000000000000 ) ) ;
#658 = ORIENTED_EDGE ( 'NONE', *, *, #205, .T. ) ;
#659 = ORIENTED_EDGE ( 'NONE', *, *, #436, .F. ) ;
#660 = DIRECTION ( 'NONE',  ( 1.000000000000000000, -0.000000000000000000, -0.000000000000000000 ) ) ;
#661 = EDGE_LOOP ( 'NONE', ( #448, #846 ) ) ;
#662 = DIRECTION ( 'NONE',  ( 0.000000000000000000, 0.000000000000000000, -1.000000000000000000 ) ) ;
#663 = CARTESIAN_POINT ( 'NONE',  ( 20.00000000000000000, 0.000000000000000000, -25.50000000000000355 ) ) ;
#664 = EDGE_LOOP ( 'NONE', ( #432, #372, #1094, #1130, #546, #1196, #1166, #785, #1238, #724, #265, #881 ) ) ;
#665 = EDGE_LOOP ( 'NONE', ( #1249, #1271, #586, #833 ) ) ;
#666 = EDGE_LOOP ( 'NONE', ( #553, #754, #478, #954 ) ) ;
#667 = ADVANCED_FACE ( 'NONE', ( #61 ), #53, .F. ) ;
#668 = DIRECTION ( 'NONE',  ( 1.000000000000000000, -0.000000000000000000, -1.051347561198064835E-16 ) ) ;
#669 = CARTESIAN_POINT ( 'NONE',  ( 33.00000000000000711, 10.00000000000000000, -28.00000000000000355 ) ) ;
#670 = LINE ( 'NONE', #125, #1227 ) ;
#671 = DIRECTION ( 'NONE',  ( -0.000000000000000000, 1.000000000000000000, -0.000000000000000000 ) ) ;
#672 = EDGE_LOOP ( 'NONE', ( #376, #473, #109, #258 ) ) ;
#673 = ORIENTED_EDGE ( 'NONE', *, *, #1019, .F. ) ;
#674 = ORIENTED_EDGE ( 'NONE', *, *, #428, .F. ) ;
#675 = ORIENTED_EDGE ( 'NONE', *, *, #35, .T. ) ;
#676 = EDGE_CURVE ( 'NONE', #385, #967, #461, .T. ) ;
#677 = EDGE_LOOP ( 'NONE', ( #686, #50, #1165, #1269 ) ) ;
#678 = CARTESIAN_POINT ( 'NONE',  ( -32.99999999999999289, 0.000000000000000000, 28.00000000000000355 ) ) ;
#679 = DIRECTION ( 'NONE',  ( 0.000000000000000000, 0.000000000000000000, -1.000000000000000000 ) ) ;
#680 = DIRECTION ( 'NONE',  ( -0.000000000000000000, 0.000000000000000000, -1.000000000000000000 ) ) ;
#681 = ORIENTED_EDGE ( 'NONE', *, *, #1109, .T. ) ;
#682 = ORIENTED_EDGE ( 'NONE', *, *, #498, .T. ) ;
#683 = ORIENTED_EDGE ( 'NONE', *, *, #1067, .F. ) ;
#684 = ORIENTED_EDGE ( 'NONE', *, *, #301, .T. ) ;
#685 = CIRCLE ( 'NONE', #332, 1.600000000000000755 ) ;
#686 = ORIENTED_EDGE ( 'NONE', *, *, #736, .T. ) ;
#687 = LINE ( 'NONE', #589, #177 ) ;
#688 = LINE ( 'NONE', #898, #1154 ) ;
#689 = EDGE_LOOP ( 'NONE', ( #630, #582, #119, #658 ) ) ;
#690 = VECTOR ( 'NONE', #668, 1000.000000000000000 ) ;
#691 = DIRECTION ( 'NONE',  ( -0.000000000000000000, 1.000000000000000000, -0.000000000000000000 ) ) ;
#692 = CYLINDRICAL_SURFACE ( 'NONE', #963, 1.600000000000000755 ) ;
#693 = EDGE_CURVE ( 'NONE', #458, #32, #221, .T. ) ;
#694 = CARTESIAN_POINT ( 'NONE',  ( -30.50000000000000355, 3.000000000000000000, 25.50000000000000000 ) ) ;
#695 = CARTESIAN_POINT ( 'NONE',  ( -20.00000000000000000, 0.000000000000000000, -25.50000000000000000 ) ) ;
#696 = ADVANCED_FACE ( 'NONE', ( #503 ), #23, .F. ) ;
#697 = LINE ( 'NONE', #694, #405 ) ;
#698 = AXIS2_PLACEMENT_3D ( 'NONE', #195, #94, #482 ) ;
#699 = CARTESIAN_POINT ( 'NONE',  ( -25.00000000000000000, 3.000000000000000000, -19.99999999999999645 ) ) ;
#700 = APPROVAL_ROLE ( '' ) ;
#701 = EDGE_CURVE ( 'NONE', #1182, #1038, #746, .T. ) ;
#702 = DIRECTION ( 'NONE',  ( -1.000000000000000000, 0.000000000000000000, 1.137523590804463822E-16 ) ) ;
#703 = AXIS2_PLACEMENT_3D ( 'NONE', #758, #1276, #966 ) ;
#704 = DIRECTION ( 'NONE',  ( -0.000000000000000000, 1.000000000000000000, -0.000000000000000000 ) ) ;
#705 = CARTESIAN_POINT ( 'NONE',  ( 33.00000000000000711, 10.00000000000000000, -7.000000000000004441 ) ) ;
#706 = VECTOR ( 'NONE', #378, 1000.000000000000000 ) ;
#707 = CARTESIAN_POINT ( 'NONE',  ( -30.50000000000000355, 3.000000000000000000, -14.49999999999999645 ) ) ;
#708 = CARTESIAN_POINT ( 'NONE',  ( -25.00000000000000000, 0.000000000000000000, 18.40000000000000213 ) ) ;
#709 = VECTOR ( 'NONE', #1145, 1000.000000000000000 ) ;
#710 = LINE ( 'NONE', #96, #1159 ) ;
#711 = CARTESIAN_POINT ( 'NONE',  ( 30.49999999999999645, 2.999999999999981348, -6.999999999999995559 ) ) ;
#712 = ADVANCED_FACE ( 'NONE', ( #512 ), #1234, .T. ) ;
#713 = LINE ( 'NONE', #519, #1147 ) ;
#714 =( NAMED_UNIT ( * ) SI_UNIT ( $, .STERADIAN. ) SOLID_ANGLE_UNIT ( ) );
#715 = VERTEX_POINT ( 'NONE', #1017 ) ;
#716 = DIRECTION ( 'NONE',  ( 0.000000000000000000, 0.000000000000000000, -1.000000000000000000 ) ) ;
#717 = PLANE ( 'NONE',  #375 ) ;
#718 = VECTOR ( 'NONE', #944, 1000.000000000000000 ) ;
#719 = DIRECTION ( 'NONE',  ( 1.000000000000000000, -0.000000000000000000, -0.000000000000000000 ) ) ;
#720 = ADVANCED_FACE ( 'NONE', ( #318 ), #628, .F. ) ;
#721 = FACE_BOUND ( 'NONE', #751, .T. ) ;
#722 = CARTESIAN_POINT ( 'NONE',  ( -25.00000000000000000, 3.000000000000000000, -21.59999999999999787 ) ) ;
#723 = CARTESIAN_POINT ( 'NONE',  ( -32.99999999999999289, 3.000000000000000000, 28.00000000000000355 ) ) ;
#724 = ORIENTED_EDGE ( 'NONE', *, *, #490, .T. ) ;
#725 = ORIENTED_EDGE ( 'NONE', *, *, #362, .T. ) ;
#726 = LINE ( 'NONE', #1051, #449 ) ;
#727 = CARTESIAN_POINT ( 'NONE',  ( -25.00000000000000000, 3.000000000000000000, 20.00000000000000355 ) ) ;
#728 = CARTESIAN_POINT ( 'NONE',  ( 33.00000000000000711, 0.000000000000000000, 27.99999999999999645 ) ) ;
#729 = EDGE_LOOP ( 'NONE', ( #1062, #993, #1279, #459 ) ) ;
#730 = DIRECTION ( 'NONE',  ( -1.000000000000000000, 0.000000000000000000, 0.000000000000000000 ) ) ;
#731 = CARTESIAN_POINT ( 'NONE',  ( -32.99999999999999289, 10.00000000000000000, -27.99999999999999645 ) ) ;
#732 = VECTOR ( 'NONE', #704, 1000.000000000000000 ) ;
#733 = EDGE_CURVE ( 'NONE', #882, #178, #1102, .T. ) ;
#734 = CARTESIAN_POINT ( 'NONE',  ( -30.50000000000000355, 10.00000000000000000, -0.4999999999999970024 ) ) ;
#735 = DIRECTION ( 'NONE',  ( -0.000000000000000000, 1.000000000000000000, -0.000000000000000000 ) ) ;
#736 = EDGE_CURVE ( 'NONE', #124, #464, #1240, .T. ) ;
#737 = CARTESIAN_POINT ( 'NONE',  ( -25.00000000000000000, 3.000000000000000000, -18.39999999999999503 ) ) ;
#738 = ORIENTED_EDGE ( 'NONE', *, *, #18, .F. ) ;
#739 = VECTOR ( 'NONE', #200, 1000.000000000000000 ) ;
#740 = FACE_OUTER_BOUND ( 'NONE', #277, .T. ) ;
#741 = FACE_OUTER_BOUND ( 'NONE', #562, .T. ) ;
#742 = ORIENTED_EDGE ( 'NONE', *, *, #1135, .T. ) ;
#743 = LINE ( 'NONE', #753, #718 ) ;
#744 = AXIS2_PLACEMENT_3D ( 'NONE', #610, #489, #110 ) ;
#745 = EDGE_CURVE ( 'NONE', #385, #25, #616, .T. ) ;
#746 = CIRCLE ( 'NONE', #347, 1.600000000000000755 ) ;
#747 = ORIENTED_EDGE ( 'NONE', *, *, #548, .F. ) ;
#748 = APPLICATION_CONTEXT ( 'configuration controlled 3d designs of mechanical parts and assemblies' ) ;
#749 = LINE ( 'NONE', #528, #382 ) ;
#750 = CARTESIAN_POINT ( 'NONE',  ( -20.00000000000000000, 3.000000000000000000, -25.50000000000000000 ) ) ;
#751 = EDGE_LOOP ( 'NONE', ( #960, #1270 ) ) ;
#752 = VERTEX_POINT ( 'NONE', #722 ) ;
#753 = CARTESIAN_POINT ( 'NONE',  ( 30.49999999999999645, 10.00000000000000000, 25.49999999999999289 ) ) ;
#754 = ORIENTED_EDGE ( 'NONE', *, *, #196, .F. ) ;
#755 = EDGE_CURVE ( 'NONE', #1262, #364, #914, .T. ) ;
#756 = AXIS2_PLACEMENT_3D ( 'NONE', #263, #947, #757 ) ;
#757 = DIRECTION ( 'NONE',  ( 0.000000000000000000, -0.000000000000000000, 1.000000000000000000 ) ) ;
#758 = CARTESIAN_POINT ( 'NONE',  ( 20.00000000000000000, 0.000000000000000000, 0.000000000000000000 ) ) ;
#759 = ORIENTED_EDGE ( 'NONE', *, *, #1299, .F. ) ;
#760 = EDGE_LOOP ( 'NONE', ( #74, #1141, #569, #274 ) ) ;
#761 = ORIENTED_EDGE ( 'NONE', *, *, #565, .T. ) ;
#762 = DIRECTION ( 'NONE',  ( -1.000000000000000000, 0.000000000000000000, 1.137523590804463822E-16 ) ) ;
#763 = VERTEX_POINT ( 'NONE', #131 ) ;
#764 = FACE_OUTER_BOUND ( 'NONE', #991, .T. ) ;
#765 = DIRECTION ( 'NONE',  ( 0.000000000000000000, 0.000000000000000000, -1.000000000000000000 ) ) ;
#766 = APPROVAL_PERSON_ORGANIZATION ( #1140, #896, #828 ) ;
#767 = ORIENTED_EDGE ( 'NONE', *, *, #498, .F. ) ;
#768 = ORIENTED_EDGE ( 'NONE', *, *, #1034, .F. ) ;
#769 = ORIENTED_EDGE ( 'NONE', *, *, #693, .F. ) ;
#770 = EDGE_CURVE ( 'NONE', #1296, #1098, #117, .T. ) ;
#771 = ORIENTED_EDGE ( 'NONE', *, *, #890, .F. ) ;
#772 = ORIENTED_EDGE ( 'NONE', *, *, #1220, .T. ) ;
#773 = ORIENTED_EDGE ( 'NONE', *, *, #548, .T. ) ;
#774 = PLANE ( 'NONE',  #698 ) ;
#775 = PLANE ( 'NONE',  #343 ) ;
#776 = ORIENTED_EDGE ( 'NONE', *, *, #598, .T. ) ;
#777 = ORIENTED_EDGE ( 'NONE', *, *, #436, .T. ) ;
#778 = ORIENTED_EDGE ( 'NONE', *, *, #485, .F. ) ;
#779 = ORIENTED_EDGE ( 'NONE', *, *, #787, .T. ) ;
#780 = ORIENTED_EDGE ( 'NONE', *, *, #877, .T. ) ;
#781 = DIRECTION ( 'NONE',  ( 0.000000000000000000, 1.000000000000000000, 0.000000000000000000 ) ) ;
#782 = CARTESIAN_POINT ( 'NONE',  ( -30.50000000000000355, 10.00000000000000000, 25.50000000000000000 ) ) ;
#783 = VECTOR ( 'NONE', #1037, 1000.000000000000000 ) ;
#784 = ORIENTED_EDGE ( 'NONE', *, *, #395, .T. ) ;
#785 = ORIENTED_EDGE ( 'NONE', *, *, #932, .F. ) ;
#786 = EDGE_CURVE ( 'NONE', #879, #1187, #1043, .T. ) ;
#787 = EDGE_CURVE ( 'NONE', #1092, #178, #6, .T. ) ;
#788 = CARTESIAN_POINT ( 'NONE',  ( -32.99999999999999289, 10.00000000000000000, 28.00000000000000355 ) ) ;
#789 = CARTESIAN_POINT ( 'NONE',  ( -25.00000000000000000, 0.000000000000000000, 21.60000000000000497 ) ) ;
#790 = ORIENTED_EDGE ( 'NONE', *, *, #919, .T. ) ;
#791 = VECTOR ( 'NONE', #296, 1000.000000000000000 ) ;
#792 = CARTESIAN_POINT ( 'NONE',  ( -25.00000000000000000, 0.000000000000000000, -19.99999999999999645 ) ) ;
#793 = CARTESIAN_POINT ( 'NONE',  ( -40.50000000000000000, 10.00000000000000000, -0.4999999999999970024 ) ) ;
#794 = AXIS2_PLACEMENT_3D ( 'NONE', #467, #886, #285 ) ;
#795 = CYLINDRICAL_SURFACE ( 'NONE', #955, 1.600000000000000755 ) ;
#796 = LINE ( 'NONE', #289, #1211 ) ;
#797 = ADVANCED_FACE ( 'NONE', ( #1247, #611 ), #717, .T. ) ;
#798 = CARTESIAN_POINT ( 'NONE',  ( 0.000000000000000000, 3.000000000000000000, 15.00000000000000000 ) ) ;
#799 = AXIS2_PLACEMENT_3D ( 'NONE', #304, #118, #819 ) ;
#800 = PLANE ( 'NONE',  #1039 ) ;
#801 = APPLICATION_PROTOCOL_DEFINITION ( 'international standard', 'config_control_design', 1994, #581 ) ;
#802 = EDGE_CURVE ( 'NONE', #32, #867, #1225, .T. ) ;
#803 = DIRECTION ( 'NONE',  ( 0.000000000000000000, 1.000000000000000000, 0.000000000000000000 ) ) ;
#804 = VECTOR ( 'NONE', #631, 1000.000000000000000 ) ;
#805 = AXIS2_PLACEMENT_3D ( 'NONE', #1157, #328, #241 ) ;
#806 = DIRECTION ( 'NONE',  ( -0.000000000000000000, 0.000000000000000000, -1.000000000000000000 ) ) ;
#807 = DATE_AND_TIME ( #401, #1215 ) ;
#808 = VECTOR ( 'NONE', #217, 1000.000000000000000 ) ;
#809 = EDGE_CURVE ( 'NONE', #420, #967, #1127, .T. ) ;
#810 = LINE ( 'NONE', #193, #739 ) ;
#811 = DIRECTION ( 'NONE',  ( 0.000000000000000000, -0.000000000000000000, 1.000000000000000000 ) ) ;
#812 = PLANE ( 'NONE',  #308 ) ;
#813 = MECHANICAL_CONTEXT ( 'NONE', #748, 'mechanical' ) ;
#814 = ORIENTED_EDGE ( 'NONE', *, *, #1210, .F. ) ;
#815 = VECTOR ( 'NONE', #915, 1000.000000000000000 ) ;
#816 = DIRECTION ( 'NONE',  ( -0.000000000000000000, -0.000000000000000000, 1.000000000000000000 ) ) ;
#817 = CARTESIAN_POINT ( 'NONE',  ( 30.49999999999999645, 3.000000000000000000, -25.50000000000000355 ) ) ;
#818 = EDGE_CURVE ( 'NONE', #80, #458, #411, .T. ) ;
#819 = DIRECTION ( 'NONE',  ( 0.000000000000000000, 0.000000000000000000, 1.000000000000000000 ) ) ;
#820 = APPROVAL_DATE_TIME ( #414, #1056 ) ;
#821 = AXIS2_PLACEMENT_3D ( 'NONE', #906, #208, #495 ) ;
#822 = DIRECTION ( 'NONE',  ( 1.000000000000000000, -0.000000000000000000, -0.000000000000000000 ) ) ;
#823 = LINE ( 'NONE', #1206, #594 ) ;
#824 = CARTESIAN_POINT ( 'NONE',  ( -20.00000000000000000, 3.000000000000000000, -0.000000000000000000 ) ) ;
#825 = ORIENTED_EDGE ( 'NONE', *, *, #1045, .T. ) ;
#826 = EDGE_CURVE ( 'NONE', #32, #1086, #1133, .T. ) ;
#827 = EDGE_CURVE ( 'NONE', #1146, #171, #823, .T. ) ;
#828 = APPROVAL_ROLE ( '' ) ;
#829 = ORIENTED_EDGE ( 'NONE', *, *, #212, .T. ) ;
#830 = DIRECTION ( 'NONE',  ( -0.000000000000000000, 1.000000000000000000, -0.000000000000000000 ) ) ;
#831 = DIRECTION ( 'NONE',  ( 0.000000000000000000, 0.000000000000000000, -1.000000000000000000 ) ) ;
#832 = LINE ( 'NONE', #1241, #1168 ) ;
#833 = ORIENTED_EDGE ( 'NONE', *, *, #417, .T. ) ;
#834 = CARTESIAN_POINT ( 'NONE',  ( -30.50000000000000355, 3.000000000000000000, -0.4999999999999970024 ) ) ;
#835 = CARTESIAN_POINT ( 'NONE',  ( -32.99999999999999289, 0.000000000000000000, -27.99999999999999645 ) ) ;
#836 = EDGE_CURVE ( 'NONE', #1060, #763, #369, .T. ) ;
#837 = EDGE_CURVE ( 'NONE', #550, #752, #487, .T. ) ;
#838 = CARTESIAN_POINT ( 'NONE',  ( 20.00000000000000000, 0.000000000000000000, -25.50000000000000355 ) ) ;
#839 = CARTESIAN_POINT ( 'NONE',  ( 25.00000000000000000, 0.000000000000000000, -20.00000000000000355 ) ) ;
#840 = CARTESIAN_POINT ( 'NONE',  ( 30.49999999999999645, 3.000000000000000000, 25.49999999999999289 ) ) ;
#841 = EDGE_LOOP ( 'NONE', ( #776, #684 ) ) ;
#842 = LINE ( 'NONE', #1063, #1124 ) ;
#843 = CARTESIAN_POINT ( 'NONE',  ( -32.99999999999999289, 3.000000000000000000, -0.4999999999999970024 ) ) ;
#844 = ORIENTED_EDGE ( 'NONE', *, *, #565, .F. ) ;
#845 = CARTESIAN_POINT ( 'NONE',  ( 33.00000000000000711, 0.000000000000000000, 27.99999999999999645 ) ) ;
#846 = ORIENTED_EDGE ( 'NONE', *, *, #576, .T. ) ;
#847 = CIRCLE ( 'NONE', #1203, 1.600000000000000755 ) ;
#848 = DIRECTION ( 'NONE',  ( 1.000000000000000000, 0.000000000000000000, -1.137523590804463822E-16 ) ) ;
#849 = CARTESIAN_POINT ( 'NONE',  ( -32.99999999999999289, 10.00000000000000000, 28.00000000000000355 ) ) ;
#850 = ORIENTED_EDGE ( 'NONE', *, *, #802, .T. ) ;
#851 = ORIENTED_EDGE ( 'NONE', *, *, #701, .T. ) ;
#852 = CARTESIAN_POINT ( 'NONE',  ( -20.00000000000000000, 0.000000000000000000, -15.00000000000000000 ) ) ;
#853 = ADVANCED_FACE ( 'NONE', ( #191 ), #174, .F. ) ;
#854 = AXIS2_PLACEMENT_3D ( 'NONE', #140, #1233, #626 ) ;
#855 = ORIENTED_EDGE ( 'NONE', *, *, #1255, .F. ) ;
#856 = LINE ( 'NONE', #48, #1112 ) ;
#857 = CARTESIAN_POINT ( 'NONE',  ( 30.49999999999999645, 10.00000000000000000, 25.49999999999999289 ) ) ;
#858 = ORIENTED_EDGE ( 'NONE', *, *, #818, .F. ) ;
#859 = ORIENTED_EDGE ( 'NONE', *, *, #676, .F. ) ;
#860 = ORIENTED_EDGE ( 'NONE', *, *, #276, .T. ) ;
#861 = LINE ( 'NONE', #852, #283 ) ;
#862 = LINE ( 'NONE', #669, #527 ) ;
#863 = ADVANCED_FACE ( 'NONE', ( #185 ), #1209, .T. ) ;
#864 = CYLINDRICAL_SURFACE ( 'NONE', #602, 1.600000000000000755 ) ;
#865 = DIRECTION ( 'NONE',  ( -0.000000000000000000, -0.000000000000000000, 1.000000000000000000 ) ) ;
#866 = ORIENTED_EDGE ( 'NONE', *, *, #900, .F. ) ;
#867 = VERTEX_POINT ( 'NONE', #897 ) ;
#868 = VERTEX_POINT ( 'NONE', #76 ) ;
#869 = VECTOR ( 'NONE', #901, 1000.000000000000000 ) ;
#870 = DIRECTION ( 'NONE',  ( -1.051347561198064958E-16, 0.000000000000000000, -1.000000000000000000 ) ) ;
#871 = ORIENTED_EDGE ( 'NONE', *, *, #545, .F. ) ;
#872 = ORIENTED_EDGE ( 'NONE', *, *, #228, .T. ) ;
#873 = APPROVAL_PERSON_ORGANIZATION ( #1119, #1056, #700 ) ;
#874 = CARTESIAN_POINT ( 'NONE',  ( 0.000000000000000000, 10.00000000000000000, 0.000000000000000000 ) ) ;
#875 = DIRECTION ( 'NONE',  ( 0.000000000000000000, 1.000000000000000000, 0.000000000000000000 ) ) ;
#876 = PRODUCT_DEFINITION ( '未知', '', #127, #1011 ) ;
#877 = EDGE_CURVE ( 'NONE', #270, #868, #280, .T. ) ;
#878 = ORIENTED_EDGE ( 'NONE', *, *, #1230, .T. ) ;
#879 = VERTEX_POINT ( 'NONE', #1306 ) ;
#880 = CIRCLE ( 'NONE', #472, 1.600000000000000755 ) ;
#881 = ORIENTED_EDGE ( 'NONE', *, *, #619, .T. ) ;
#882 = VERTEX_POINT ( 'NONE', #1103 ) ;
#883 = ORIENTED_EDGE ( 'NONE', *, *, #1289, .T. ) ;
#884 = VECTOR ( 'NONE', #1088, 1000.000000000000000 ) ;
#885 = CYLINDRICAL_SURFACE ( 'NONE', #293, 1.600000000000000755 ) ;
#886 = DIRECTION ( 'NONE',  ( 1.137523590804463822E-16, 0.000000000000000000, 1.000000000000000000 ) ) ;
#887 = ORIENTED_EDGE ( 'NONE', *, *, #1143, .F. ) ;
#888 = ADVANCED_FACE ( 'NONE', ( #892 ), #885, .F. ) ;
#889 = ORIENTED_EDGE ( 'NONE', *, *, #97, .T. ) ;
#890 = EDGE_CURVE ( 'NONE', #154, #62, #84, .T. ) ;
#891 = EDGE_LOOP ( 'NONE', ( #365, #1139, #989, #161 ) ) ;
#892 = FACE_OUTER_BOUND ( 'NONE', #68, .T. ) ;
#893 = DIRECTION ( 'NONE',  ( -0.000000000000000000, -1.000000000000000000, -0.000000000000000000 ) ) ;
#894 = VECTOR ( 'NONE', #327, 1000.000000000000000 ) ;
#895 = ORIENTED_EDGE ( 'NONE', *, *, #135, .T. ) ;
#896 = APPROVAL ( #128, '未指定' ) ;
#897 = CARTESIAN_POINT ( 'NONE',  ( 30.49999999999999645, 10.00000000000000000, -7.000000000000004441 ) ) ;
#898 = CARTESIAN_POINT ( 'NONE',  ( -20.00000000000000000, 3.000000000000000000, -0.000000000000000000 ) ) ;
#899 = CARTESIAN_POINT ( 'NONE',  ( 25.00000000000000000, 3.000000000000000000, -18.40000000000000213 ) ) ;
#900 = EDGE_CURVE ( 'NONE', #425, #484, #685, .T. ) ;
#901 = DIRECTION ( 'NONE',  ( -1.000000000000000000, 0.000000000000000000, 1.051347561198064835E-16 ) ) ;
#902 = PERSON_AND_ORGANIZATION_ROLE ( 'design_owner' ) ;
#903 = DIRECTION ( 'NONE',  ( 0.000000000000000000, 0.000000000000000000, -1.000000000000000000 ) ) ;
#904 = FACE_BOUND ( 'NONE', #969, .T. ) ;
#905 = EDGE_CURVE ( 'NONE', #1028, #358, #388, .T. ) ;
#906 = CARTESIAN_POINT ( 'NONE',  ( 0.000000000000000000, 0.000000000000000000, 0.000000000000000000 ) ) ;
#907 = DIRECTION ( 'NONE',  ( -1.000000000000000000, 0.000000000000000000, 0.000000000000000000 ) ) ;
#908 = VECTOR ( 'NONE', #98, 1000.000000000000000 ) ;
#909 = DIRECTION ( 'NONE',  ( 0.000000000000000000, 0.000000000000000000, -1.000000000000000000 ) ) ;
#910 = SECURITY_CLASSIFICATION_LEVEL ( 'unclassified' ) ;
#911 = CARTESIAN_POINT ( 'NONE',  ( 30.49999999999999645, 0.000000000000000000, -15.00000000000000000 ) ) ;
#912 = AXIS2_PLACEMENT_3D ( 'NONE', #603, #197, #903 ) ;
#913 = AXIS2_PLACEMENT_3D ( 'NONE', #1244, #34, #560 ) ;
#914 = LINE ( 'NONE', #938, #532 ) ;
#915 = DIRECTION ( 'NONE',  ( -0.000000000000000000, 1.000000000000000000, -0.000000000000000000 ) ) ;
#916 = CIRCLE ( 'NONE', #219, 1.600000000000000755 ) ;
#917 = VECTOR ( 'NONE', #735, 1000.000000000000000 ) ;
#918 = DIRECTION ( 'NONE',  ( 1.000000000000000000, -0.000000000000000000, -0.000000000000000000 ) ) ;
#919 = EDGE_CURVE ( 'NONE', #367, #69, #687, .T. ) ;
#920 = CARTESIAN_POINT ( 'NONE',  ( 0.000000000000000000, 0.000000000000000000, -15.00000000000000000 ) ) ;
#921 = PLANE ( 'NONE',  #499 ) ;
#922 = COORDINATED_UNIVERSAL_TIME_OFFSET ( 8, 0, .AHEAD. ) ;
#923 = PLANE ( 'NONE',  #854 ) ;
#924 = CC_DESIGN_PERSON_AND_ORGANIZATION_ASSIGNMENT ( #108, #1007, ( #72 ) ) ;
#925 = DIRECTION ( 'NONE',  ( 0.000000000000000000, -1.000000000000000000, 0.000000000000000000 ) ) ;
#926 = LINE ( 'NONE', #1314, #396 ) ;
#927 = ORIENTED_EDGE ( 'NONE', *, *, #745, .F. ) ;
#928 = ORIENTED_EDGE ( 'NONE', *, *, #1185, .F. ) ;
#929 = VECTOR ( 'NONE', #543, 1000.000000000000000 ) ;
#930 = LINE ( 'NONE', #22, #1027 ) ;
#931 = DIRECTION ( 'NONE',  ( 0.000000000000000000, 1.000000000000000000, 0.000000000000000000 ) ) ;
#932 = EDGE_CURVE ( 'NONE', #60, #282, #796, .T. ) ;
#933 = LINE ( 'NONE', #728, #148 ) ;
#934 = ORIENTED_EDGE ( 'NONE', *, *, #1045, .F. ) ;
#935 = DIRECTION ( 'NONE',  ( -1.000000000000000000, 0.000000000000000000, 0.000000000000000000 ) ) ;
#936 = LINE ( 'NONE', #353, #182 ) ;
#937 = DIRECTION ( 'NONE',  ( 0.000000000000000000, 1.000000000000000000, 0.000000000000000000 ) ) ;
#938 = CARTESIAN_POINT ( 'NONE',  ( 20.00000000000000000, 0.000000000000000000, 0.000000000000000000 ) ) ;
#939 = LINE ( 'NONE', #1248, #709 ) ;
#940 = ORIENTED_EDGE ( 'NONE', *, *, #1109, .F. ) ;
#941 = DIRECTION ( 'NONE',  ( -0.000000000000000000, -0.000000000000000000, 1.000000000000000000 ) ) ;
#942 = LINE ( 'NONE', #256, #585 ) ;
#943 = EDGE_LOOP ( 'NONE', ( #878, #772, #421, #674, #44, #859, #371, #238, #780, #725, #778, #855 ) ) ;
#944 = DIRECTION ( 'NONE',  ( 0.000000000000000000, 0.000000000000000000, -1.000000000000000000 ) ) ;
#945 = VECTOR ( 'NONE', #941, 1000.000000000000000 ) ;
#946 = ORIENTED_EDGE ( 'NONE', *, *, #37, .T. ) ;
#947 = DIRECTION ( 'NONE',  ( 0.000000000000000000, 1.000000000000000000, 0.000000000000000000 ) ) ;
#948 = DIRECTION ( 'NONE',  ( -0.000000000000000000, 1.000000000000000000, -0.000000000000000000 ) ) ;
#949 = ORIENTED_EDGE ( 'NONE', *, *, #516, .F. ) ;
#950 = CALENDAR_DATE ( 2026, 30, 8 ) ;
#951 = ORIENTED_EDGE ( 'NONE', *, *, #1315, .F. ) ;
#952 = ADVANCED_FACE ( 'NONE', ( #1107 ), #774, .F. ) ;
#953 = DIRECTION ( 'NONE',  ( 0.000000000000000000, 1.000000000000000000, 0.000000000000000000 ) ) ;
#954 = ORIENTED_EDGE ( 'NONE', *, *, #224, .T. ) ;
#955 = AXIS2_PLACEMENT_3D ( 'NONE', #792, #1106, #403 ) ;
#956 = LINE ( 'NONE', #1057, #929 ) ;
#957 = DIRECTION ( 'NONE',  ( 1.000000000000000000, -0.000000000000000000, 0.000000000000000000 ) ) ;
#958 = ORIENTED_EDGE ( 'NONE', *, *, #1194, .T. ) ;
#959 = DATE_AND_TIME ( #950, #584 ) ;
#960 = ORIENTED_EDGE ( 'NONE', *, *, #196, .T. ) ;
#961 = CARTESIAN_POINT ( 'NONE',  ( 33.00000000000000711, 10.00000000000000000, 27.99999999999999645 ) ) ;
#962 = EDGE_CURVE ( 'NONE', #1028, #20, #1302, .T. ) ;
#963 = AXIS2_PLACEMENT_3D ( 'NONE', #984, #671, #483 ) ;
#964 = CARTESIAN_POINT ( 'NONE',  ( 30.49999999999999645, 7.000000000000000000, -7.000000000000002665 ) ) ;
#965 = DIRECTION ( 'NONE',  ( -0.000000000000000000, 1.000000000000000000, -0.000000000000000000 ) ) ;
#966 = DIRECTION ( 'NONE',  ( 0.000000000000000000, 0.000000000000000000, -1.000000000000000000 ) ) ;
#967 = VERTEX_POINT ( 'NONE', #491 ) ;
#968 = EDGE_LOOP ( 'NONE', ( #986, #573, #1158, #279 ) ) ;
#969 = EDGE_LOOP ( 'NONE', ( #1277, #1191 ) ) ;
#970 = DIRECTION ( 'NONE',  ( -0.000000000000000000, -0.000000000000000000, 1.000000000000000000 ) ) ;
#971 = EDGE_CURVE ( 'NONE', #975, #160, #292, .T. ) ;
#972 = VERTEX_POINT ( 'NONE', #567 ) ;
#973 = LINE ( 'NONE', #64, #574 ) ;
#974 = CARTESIAN_POINT ( 'NONE',  ( -20.00000000000000000, 0.000000000000000000, 25.50000000000000000 ) ) ;
#975 = VERTEX_POINT ( 'NONE', #1311 ) ;
#976 = ORIENTED_EDGE ( 'NONE', *, *, #228, .F. ) ;
#977 = ORIENTED_EDGE ( 'NONE', *, *, #301, .F. ) ;
#978 = VERTEX_POINT ( 'NONE', #390 ) ;
#979 = AXIS2_PLACEMENT_3D ( 'NONE', #7, #1032, #1221 ) ;
#980 = ORIENTED_EDGE ( 'NONE', *, *, #890, .T. ) ;
#981 = DIRECTION ( 'NONE',  ( -0.000000000000000000, 1.000000000000000000, -0.000000000000000000 ) ) ;
#982 = EDGE_CURVE ( 'NONE', #66, #160, #973, .T. ) ;
#983 = DIRECTION ( 'NONE',  ( 1.000000000000000000, 0.000000000000000000, 0.000000000000000000 ) ) ;
#984 = CARTESIAN_POINT ( 'NONE',  ( 25.00000000000000000, 0.000000000000000000, -20.00000000000000355 ) ) ;
#985 = CC_DESIGN_SECURITY_CLASSIFICATION ( #72, ( #127 ) ) ;
#986 = ORIENTED_EDGE ( 'NONE', *, *, #212, .F. ) ;
#987 = EDGE_CURVE ( 'NONE', #1260, #1022, #1189, .T. ) ;
#988 = VECTOR ( 'NONE', #1268, 1000.000000000000000 ) ;
#989 = ORIENTED_EDGE ( 'NONE', *, *, #620, .F. ) ;
#990 = AXIS2_PLACEMENT_3D ( 'NONE', #186, #568, #90 ) ;
#991 = EDGE_LOOP ( 'NONE', ( #246, #150, #342, #1287 ) ) ;
#992 = VECTOR ( 'NONE', #702, 1000.000000000000000 ) ;
#993 = ORIENTED_EDGE ( 'NONE', *, *, #1255, .T. ) ;
#994 = VECTOR ( 'NONE', #635, 1000.000000000000000 ) ;
#995 = DIRECTION ( 'NONE',  ( 0.000000000000000000, 0.000000000000000000, -1.000000000000000000 ) ) ;
#996 = DIRECTION ( 'NONE',  ( -0.000000000000000000, 1.000000000000000000, -0.000000000000000000 ) ) ;
#997 = ORIENTED_EDGE ( 'NONE', *, *, #1315, .T. ) ;
#998 = ADVANCED_FACE ( 'NONE', ( #904, #624 ), #921, .T. ) ;
#999 = CARTESIAN_POINT ( 'NONE',  ( 25.00000000000000000, 0.000000000000000000, 19.99999999999999645 ) ) ;
#1000 = DIRECTION ( 'NONE',  ( 0.000000000000000000, 1.000000000000000000, 0.000000000000000000 ) ) ;
#1001 = VECTOR ( 'NONE', #431, 1000.000000000000000 ) ;
#1002 = ADVANCED_FACE ( 'NONE', ( #207 ), #800, .T. ) ;
#1003 = EDGE_CURVE ( 'NONE', #460, #124, #1213, .T. ) ;
#1004 = DIRECTION ( 'NONE',  ( -0.000000000000000000, 1.000000000000000000, -0.000000000000000000 ) ) ;
#1005 = DIRECTION ( 'NONE',  ( -0.000000000000000000, 1.000000000000000000, -0.000000000000000000 ) ) ;
#1006 =( GEOMETRIC_REPRESENTATION_CONTEXT ( 3 ) GLOBAL_UNCERTAINTY_ASSIGNED_CONTEXT ( ( #300 ) ) GLOBAL_UNIT_ASSIGNED_CONTEXT ( ( #1113, #492, #714 ) ) REPRESENTATION_CONTEXT ( 'NONE', 'WORKASPACE' ) );
#1007 = PERSON_AND_ORGANIZATION_ROLE ( 'classification_officer' ) ;
#1008 = PLANE ( 'NONE',  #744 ) ;
#1009 = ADVANCED_FACE ( 'NONE', ( #1319, #1117 ), #1111, .T. ) ;
#1010 = DIRECTION ( 'NONE',  ( 0.000000000000000000, 1.000000000000000000, 0.000000000000000000 ) ) ;
#1011 = DESIGN_CONTEXT ( 'detailed design', #581, 'design' ) ;
#1012 = LINE ( 'NONE', #705, #70 ) ;
#1013 = CARTESIAN_POINT ( 'NONE',  ( -25.00000000000000000, 0.000000000000000000, 21.60000000000000497 ) ) ;
#1014 = DIRECTION ( 'NONE',  ( 1.000000000000000000, 0.000000000000000000, 0.000000000000000000 ) ) ;
#1015 = CALENDAR_DATE ( 2026, 30, 8 ) ;
#1016 = LINE ( 'NONE', #393, #617 ) ;
#1017 = CARTESIAN_POINT ( 'NONE',  ( 20.00000000000000000, 3.000000000000000000, -25.50000000000000355 ) ) ;
#1018 = CARTESIAN_POINT ( 'NONE',  ( 25.00000000000000000, 0.000000000000000000, 18.39999999999999503 ) ) ;
#1019 = EDGE_CURVE ( 'NONE', #614, #1183, #1026, .T. ) ;
#1020 = ADVANCED_FACE ( 'NONE', ( #199 ), #497, .F. ) ;
#1021 = PERSON_AND_ORGANIZATION_ROLE ( 'design_supplier' ) ;
#1022 = VERTEX_POINT ( 'NONE', #101 ) ;
#1023 = CARTESIAN_POINT ( 'NONE',  ( 33.00000000000000711, 10.00000000000000000, 27.99999999999999645 ) ) ;
#1024 = VECTOR ( 'NONE', #340, 1000.000000000000000 ) ;
#1025 = DIRECTION ( 'NONE',  ( 0.000000000000000000, 0.000000000000000000, 1.000000000000000000 ) ) ;
#1026 = LINE ( 'NONE', #824, #908 ) ;
#1027 = VECTOR ( 'NONE', #422, 1000.000000000000000 ) ;
#1028 = VERTEX_POINT ( 'NONE', #408 ) ;
#1029 = PRODUCT_RELATED_PRODUCT_CATEGORY ( 'detail', '', ( #445 ) ) ;
#1030 = DIRECTION ( 'NONE',  ( -0.000000000000000000, 0.000000000000000000, 1.000000000000000000 ) ) ;
#1031 = CARTESIAN_POINT ( 'NONE',  ( 30.49999999999999645, 3.000000000000000000, -25.50000000000000355 ) ) ;
#1032 = DIRECTION ( 'NONE',  ( 0.000000000000000000, 1.000000000000000000, 0.000000000000000000 ) ) ;
#1033 = ORIENTED_EDGE ( 'NONE', *, *, #184, .T. ) ;
#1034 = EDGE_CURVE ( 'NONE', #484, #425, #632, .T. ) ;
#1035 = LINE ( 'NONE', #1131, #189 ) ;
#1036 = DIRECTION ( 'NONE',  ( 0.000000000000000000, 1.000000000000000000, 0.000000000000000000 ) ) ;
#1037 = DIRECTION ( 'NONE',  ( -0.000000000000000000, 1.000000000000000000, -0.000000000000000000 ) ) ;
#1038 = VERTEX_POINT ( 'NONE', #604 ) ;
#1039 = AXIS2_PLACEMENT_3D ( 'NONE', #1231, #13, #413 ) ;
#1040 = CARTESIAN_POINT ( 'NONE',  ( 30.49999999999999645, 10.00000000000000000, 6.999999999999995559 ) ) ;
#1041 = LOCAL_TIME ( 15, 37, 31.00000000000000000, #501 ) ;
#1042 = DIRECTION ( 'NONE',  ( -0.000000000000000000, -1.000000000000000000, -0.000000000000000000 ) ) ;
#1043 = LINE ( 'NONE', #30, #480 ) ;
#1044 = CIRCLE ( 'NONE', #1152, 1.600000000000000755 ) ;
#1045 = EDGE_CURVE ( 'NONE', #1184, #1086, #926, .T. ) ;
#1046 = DIRECTION ( 'NONE',  ( -1.000000000000000000, 0.000000000000000000, 0.000000000000000000 ) ) ;
#1047 = VERTEX_POINT ( 'NONE', #105 ) ;
#1048 = DIRECTION ( 'NONE',  ( -0.000000000000000000, 0.000000000000000000, -1.000000000000000000 ) ) ;
#1049 = PLANE ( 'NONE',  #73 ) ;
#1050 = EDGE_LOOP ( 'NONE', ( #883, #927, #928, #1065 ) ) ;
#1051 = CARTESIAN_POINT ( 'NONE',  ( 20.00000000000000000, 0.000000000000000000, -15.00000000000000000 ) ) ;
#1052 = VECTOR ( 'NONE', #1144, 1000.000000000000000 ) ;
#1053 = DIRECTION ( 'NONE',  ( 1.000000000000000000, -0.000000000000000000, -0.000000000000000000 ) ) ;
#1054 = CARTESIAN_POINT ( 'NONE',  ( 25.00000000000000000, 3.000000000000000000, 21.59999999999999787 ) ) ;
#1055 = EDGE_LOOP ( 'NONE', ( #1266, #348 ) ) ;
#1056 = APPROVAL ( #609, '未指定' ) ;
#1057 = CARTESIAN_POINT ( 'NONE',  ( 0.000000000000000000, 3.000000000000000000, -15.00000000000000000 ) ) ;
#1058 = CARTESIAN_POINT ( 'NONE',  ( 30.49999999999999645, 0.000000000000000000, 15.00000000000000000 ) ) ;
#1059 = ORIENTED_EDGE ( 'NONE', *, *, #63, .T. ) ;
#1060 = VERTEX_POINT ( 'NONE', #202 ) ;
#1061 = DIRECTION ( 'NONE',  ( 1.051347561198064958E-16, -0.000000000000000000, 1.000000000000000000 ) ) ;
#1062 = ORIENTED_EDGE ( 'NONE', *, *, #1067, .T. ) ;
#1063 = CARTESIAN_POINT ( 'NONE',  ( 30.49999999999999645, 10.00000000000000000, 25.49999999999999289 ) ) ;
#1064 = DIRECTION ( 'NONE',  ( 1.000000000000000000, -0.000000000000000000, -1.137523590804463822E-16 ) ) ;
#1065 = ORIENTED_EDGE ( 'NONE', *, *, #607, .T. ) ;
#1066 = ORIENTED_EDGE ( 'NONE', *, *, #260, .F. ) ;
#1067 = EDGE_CURVE ( 'NONE', #172, #978, #713, .T. ) ;
#1068 = CARTESIAN_POINT ( 'NONE',  ( -32.99999999999999289, 10.00000000000000000, 28.00000000000000355 ) ) ;
#1069 = CARTESIAN_POINT ( 'NONE',  ( -40.50000000000000000, 3.000000000000000000, -14.49999999999999645 ) ) ;
#1070 = LINE ( 'NONE', #1180, #486 ) ;
#1071 = CARTESIAN_POINT ( 'NONE',  ( -32.99999999999999289, 10.00000000000000000, -0.4999999999999970024 ) ) ;
#1072 = ORIENTED_EDGE ( 'NONE', *, *, #106, .F. ) ;
#1073 = VERTEX_POINT ( 'NONE', #612 ) ;
#1074 = ORIENTED_EDGE ( 'NONE', *, *, #330, .T. ) ;
#1075 = ADVANCED_FACE ( 'NONE', ( #211 ), #1134, .F. ) ;
#1076 = EDGE_CURVE ( 'NONE', #282, #763, #506, .T. ) ;
#1077 = CARTESIAN_POINT ( 'NONE',  ( -30.50000000000000355, 0.000000000000000000, 0.000000000000000000 ) ) ;
#1078 = VERTEX_POINT ( 'NONE', #398 ) ;
#1079 = CARTESIAN_POINT ( 'NONE',  ( 33.00000000000000711, 0.000000000000000000, -28.00000000000000355 ) ) ;
#1080 = CARTESIAN_POINT ( 'NONE',  ( 33.00000000000000711, 10.00000000000000000, -28.00000000000000355 ) ) ;
#1081 = EDGE_LOOP ( 'NONE', ( #934, #170, #162, #784, #230, #976, #949, #86 ) ) ;
#1082 = EDGE_LOOP ( 'NONE', ( #479, #825, #452, #769 ) ) ;
#1083 = ORIENTED_EDGE ( 'NONE', *, *, #91, .T. ) ;
#1084 = ORIENTED_EDGE ( 'NONE', *, *, #982, .T. ) ;
#1085 = ADVANCED_FACE ( 'NONE', ( #218 ), #812, .T. ) ;
#1086 = VERTEX_POINT ( 'NONE', #310 ) ;
#1087 = CARTESIAN_POINT ( 'NONE',  ( -30.50000000000000355, 3.000000000000000000, -15.00000000000000000 ) ) ;
#1088 = DIRECTION ( 'NONE',  ( -0.000000000000000000, 1.000000000000000000, -0.000000000000000000 ) ) ;
#1089 = CARTESIAN_POINT ( 'NONE',  ( -30.50000000000000355, 3.000000000000000000, -25.50000000000000000 ) ) ;
#1090 = ORIENTED_EDGE ( 'NONE', *, *, #1129, .T. ) ;
#1091 = ORIENTED_EDGE ( 'NONE', *, *, #1076, .T. ) ;
#1092 = VERTEX_POINT ( 'NONE', #708 ) ;
#1093 = VECTOR ( 'NONE', #1201, 1000.000000000000000 ) ;
#1094 = ORIENTED_EDGE ( 'NONE', *, *, #676, .T. ) ;
#1095 = DIRECTION ( 'NONE',  ( 0.000000000000000000, 0.000000000000000000, -1.000000000000000000 ) ) ;
#1096 = CARTESIAN_POINT ( 'NONE',  ( -25.00000000000000000, 0.000000000000000000, -21.59999999999999787 ) ) ;
#1097 = DIRECTION ( 'NONE',  ( 0.000000000000000000, 0.000000000000000000, -1.000000000000000000 ) ) ;
#1098 = VERTEX_POINT ( 'NONE', #1226 ) ;
#1099 = AXIS2_PLACEMENT_3D ( 'NONE', #245, #446, #349 ) ;
#1100 = CIRCLE ( 'NONE', #913, 1.600000000000000755 ) ;
#1101 = AXIS2_PLACEMENT_3D ( 'NONE', #517, #530, #1030 ) ;
#1102 = CIRCLE ( 'NONE', #190, 1.600000000000000755 ) ;
#1103 = CARTESIAN_POINT ( 'NONE',  ( -25.00000000000000000, 3.000000000000000000, 21.60000000000000497 ) ) ;
#1104 = LINE ( 'NONE', #789, #1218 ) ;
#1105 = EDGE_CURVE ( 'NONE', #752, #1162, #542, .T. ) ;
#1106 = DIRECTION ( 'NONE',  ( -0.000000000000000000, 1.000000000000000000, -0.000000000000000000 ) ) ;
#1107 = FACE_OUTER_BOUND ( 'NONE', #729, .T. ) ;
#1108 = PERSON_AND_ORGANIZATION ( #583, #1214 ) ;
#1109 = EDGE_CURVE ( 'NONE', #60, #171, #222, .T. ) ;
#1110 = LINE ( 'NONE', #798, #791 ) ;
#1111 = PLANE ( 'NONE',  #979 ) ;
#1112 = VECTOR ( 'NONE', #848, 1000.000000000000000 ) ;
#1113 =( LENGTH_UNIT ( ) NAMED_UNIT ( * ) SI_UNIT ( .MILLI., .METRE. ) );
#1114 = AXIS2_PLACEMENT_3D ( 'NONE', #1069, #1095, #157 ) ;
#1115 = EDGE_CURVE ( 'NONE', #1282, #282, #123, .T. ) ;
#1116 = PLANE ( 'NONE',  #912 ) ;
#1117 = FACE_OUTER_BOUND ( 'NONE', #554, .T. ) ;
#1118 = VECTOR ( 'NONE', #925, 1000.000000000000000 ) ;
#1119 = PERSON_AND_ORGANIZATION ( #583, #1214 ) ;
#1120 = DIRECTION ( 'NONE',  ( -1.000000000000000000, 0.000000000000000000, 0.000000000000000000 ) ) ;
#1121 = EDGE_CURVE ( 'NONE', #625, #975, #933, .T. ) ;
#1122 = EDGE_CURVE ( 'NONE', #172, #1188, #24, .T. ) ;
#1123 = DIRECTION ( 'NONE',  ( 0.000000000000000000, 0.000000000000000000, 1.000000000000000000 ) ) ;
#1124 = VECTOR ( 'NONE', #662, 1000.000000000000000 ) ;
#1125 = DATE_AND_TIME ( #114, #366 ) ;
#1126 = CARTESIAN_POINT ( 'NONE',  ( 23.00000000000000711, 7.000000000000000000, 6.999999999999995559 ) ) ;
#1127 = LINE ( 'NONE', #307, #242 ) ;
#1128 = CARTESIAN_POINT ( 'NONE',  ( 0.000000000000000000, 0.000000000000000000, 15.00000000000000000 ) ) ;
#1129 = EDGE_CURVE ( 'NONE', #653, #154, #333, .T. ) ;
#1130 = ORIENTED_EDGE ( 'NONE', *, *, #809, .F. ) ;
#1131 = CARTESIAN_POINT ( 'NONE',  ( -40.50000000000000000, 3.000000000000000000, -14.49999999999999645 ) ) ;
#1132 = VECTOR ( 'NONE', #1004, 1000.000000000000000 ) ;
#1133 = LINE ( 'NONE', #623, #1292 ) ;
#1134 = PLANE ( 'NONE',  #252 ) ;
#1135 = EDGE_CURVE ( 'NONE', #20, #51, #832, .T. ) ;
#1136 = FACE_BOUND ( 'NONE', #661, .T. ) ;
#1137 = DIRECTION ( 'NONE',  ( -0.000000000000000000, 1.000000000000000000, -0.000000000000000000 ) ) ;
#1138 = DIRECTION ( 'NONE',  ( 0.000000000000000000, 0.000000000000000000, 1.000000000000000000 ) ) ;
#1139 = ORIENTED_EDGE ( 'NONE', *, *, #485, .T. ) ;
#1140 = PERSON_AND_ORGANIZATION ( #583, #1214 ) ;
#1141 = ORIENTED_EDGE ( 'NONE', *, *, #837, .T. ) ;
#1142 = LINE ( 'NONE', #415, #511 ) ;
#1143 = EDGE_CURVE ( 'NONE', #62, #270, #939, .T. ) ;
#1144 = DIRECTION ( 'NONE',  ( -1.000000000000000000, 0.000000000000000000, 0.000000000000000000 ) ) ;
#1145 = DIRECTION ( 'NONE',  ( -1.000000000000000000, 0.000000000000000000, 1.137523590804463822E-16 ) ) ;
#1146 = VERTEX_POINT ( 'NONE', #840 ) ;
#1147 = VECTOR ( 'NONE', #719, 1000.000000000000000 ) ;
#1148 = CARTESIAN_POINT ( 'NONE',  ( 25.00000000000000000, 0.000000000000000000, 18.39999999999999503 ) ) ;
#1149 = DIRECTION ( 'NONE',  ( 0.000000000000000000, 1.000000000000000000, 0.000000000000000000 ) ) ;
#1150 = CARTESIAN_POINT ( 'NONE',  ( -30.50000000000000355, 10.00000000000000000, 25.50000000000000000 ) ) ;
#1151 = DIRECTION ( 'NONE',  ( 0.000000000000000000, 0.000000000000000000, -1.000000000000000000 ) ) ;
#1152 = AXIS2_PLACEMENT_3D ( 'NONE', #529, #360, #152 ) ;
#1153 = CARTESIAN_POINT ( 'NONE',  ( 25.00000000000000000, 0.000000000000000000, -21.60000000000000497 ) ) ;
#1154 = VECTOR ( 'NONE', #1097, 1000.000000000000000 ) ;
#1155 = ORIENTED_EDGE ( 'NONE', *, *, #982, .F. ) ;
#1156 = DIRECTION ( 'NONE',  ( 0.000000000000000000, 0.000000000000000000, 1.000000000000000000 ) ) ;
#1157 = CARTESIAN_POINT ( 'NONE',  ( -25.00000000000000000, 0.000000000000000000, -19.99999999999999645 ) ) ;
#1158 = ORIENTED_EDGE ( 'NONE', *, *, #106, .T. ) ;
#1159 = VECTOR ( 'NONE', #918, 1000.000000000000000 ) ;
#1160 = AXIS2_PLACEMENT_3D ( 'NONE', #874, #271, #595 ) ;
#1161 = PLANE ( 'NONE',  #181 ) ;
#1162 = VERTEX_POINT ( 'NONE', #737 ) ;
#1163 = LINE ( 'NONE', #834, #1177 ) ;
#1164 = DIRECTION ( 'NONE',  ( -0.000000000000000000, 1.000000000000000000, -0.000000000000000000 ) ) ;
#1165 = ORIENTED_EDGE ( 'NONE', *, *, #490, .F. ) ;
#1166 = ORIENTED_EDGE ( 'NONE', *, *, #1115, .T. ) ;
#1167 = CARTESIAN_POINT ( 'NONE',  ( -20.00000000000000000, 3.000000000000000000, 25.50000000000000000 ) ) ;
#1168 = VECTOR ( 'NONE', #325, 1000.000000000000000 ) ;
#1169 = ORIENTED_EDGE ( 'NONE', *, *, #18, .T. ) ;
#1170 = CARTESIAN_POINT ( 'NONE',  ( 30.49999999999999645, 3.000000000000000000, -25.50000000000000355 ) ) ;
#1171 = LINE ( 'NONE', #857, #988 ) ;
#1172 = CC_DESIGN_PERSON_AND_ORGANIZATION_ASSIGNMENT ( #1312, #294, ( #876 ) ) ;
#1173 = ORIENTED_EDGE ( 'NONE', *, *, #905, .F. ) ;
#1174 = ORIENTED_EDGE ( 'NONE', *, *, #1237, .F. ) ;
#1175 = ORIENTED_EDGE ( 'NONE', *, *, #1135, .F. ) ;
#1176 = DIRECTION ( 'NONE',  ( 1.000000000000000000, 0.000000000000000000, -1.051347561198064958E-16 ) ) ;
#1177 = VECTOR ( 'NONE', #650, 1000.000000000000000 ) ;
#1178 = CARTESIAN_POINT ( 'NONE',  ( -32.99999999999999289, 10.00000000000000000, 28.00000000000000355 ) ) ;
#1179 = PRODUCT_DEFINITION_SHAPE ( 'NONE', 'NONE',  #876 ) ;
#1180 = CARTESIAN_POINT ( 'NONE',  ( -30.50000000000000355, 3.000000000000000000, -0.4999999999999970024 ) ) ;
#1181 = FACE_OUTER_BOUND ( 'NONE', #346, .T. ) ;
#1182 = VERTEX_POINT ( 'NONE', #1153 ) ;
#1183 = VERTEX_POINT ( 'NONE', #237 ) ;
#1184 = VERTEX_POINT ( 'NONE', #540 ) ;
#1185 = EDGE_CURVE ( 'NONE', #653, #385, #319, .T. ) ;
#1186 = ORIENTED_EDGE ( 'NONE', *, *, #116, .T. ) ;
#1187 = VERTEX_POINT ( 'NONE', #1054 ) ;
#1188 = VERTEX_POINT ( 'NONE', #133 ) ;
#1189 = LINE ( 'NONE', #1018, #732 ) ;
#1190 = CARTESIAN_POINT ( 'NONE',  ( 0.000000000000000000, 0.000000000000000000, -15.00000000000000000 ) ) ;
#1191 = ORIENTED_EDGE ( 'NONE', *, *, #1105, .F. ) ;
#1192 = VERTEX_POINT ( 'NONE', #648 ) ;
#1193 = ORIENTED_EDGE ( 'NONE', *, *, #932, .T. ) ;
#1194 = EDGE_CURVE ( 'NONE', #69, #1184, #533, .T. ) ;
#1195 = ORIENTED_EDGE ( 'NONE', *, *, #1316, .T. ) ;
#1196 = ORIENTED_EDGE ( 'NONE', *, *, #1299, .T. ) ;
#1197 = CARTESIAN_POINT ( 'NONE',  ( 20.00000000000000000, 3.000000000000000000, 0.000000000000000000 ) ) ;
#1198 = LINE ( 'NONE', #1080, #587 ) ;
#1199 = EDGE_LOOP ( 'NONE', ( #59, #1297, #946, #250, #269, #381, #1304, #814 ) ) ;
#1200 = ADVANCED_FACE ( 'NONE', ( #255, #426 ), #439, .T. ) ;
#1201 = DIRECTION ( 'NONE',  ( -0.000000000000000000, -0.000000000000000000, 1.000000000000000000 ) ) ;
#1202 = PLANE ( 'NONE',  #794 ) ;
#1203 = AXIS2_PLACEMENT_3D ( 'NONE', #557, #357, #549 ) ;
#1204 = CARTESIAN_POINT ( 'NONE',  ( 25.00000000000000000, 3.000000000000000000, -21.60000000000000497 ) ) ;
#1205 = VECTOR ( 'NONE', #816, 1000.000000000000000 ) ;
#1206 = CARTESIAN_POINT ( 'NONE',  ( 30.49999999999999645, 3.000000000000000000, 25.49999999999999289 ) ) ;
#1207 = ADVANCED_FACE ( 'NONE', ( #352 ), #359, .T. ) ;
#1208 = CARTESIAN_POINT ( 'NONE',  ( 30.49999999999999645, 3.000000000000000000, -25.50000000000000355 ) ) ;
#1209 = PLANE ( 'NONE',  #1160 ) ;
#1210 = EDGE_CURVE ( 'NONE', #867, #1098, #842, .T. ) ;
#1211 = VECTOR ( 'NONE', #166, 1000.000000000000000 ) ;
#1212 = LINE ( 'NONE', #1208, #992 ) ;
#1213 = LINE ( 'NONE', #513, #463 ) ;
#1214 = ORGANIZATION ( '未指定', '未指定', '' ) ;
#1215 = LOCAL_TIME ( 15, 37, 31.00000000000000000, #2 ) ;
#1216 = DATE_AND_TIME ( #99, #1281 ) ;
#1217 = ADVANCED_FACE ( 'NONE', ( #764 ), #335, .F. ) ;
#1218 = VECTOR ( 'NONE', #281, 1000.000000000000000 ) ;
#1219 = DIRECTION ( 'NONE',  ( 0.000000000000000000, 0.000000000000000000, -1.000000000000000000 ) ) ;
#1220 = EDGE_CURVE ( 'NONE', #358, #223, #536, .T. ) ;
#1221 = DIRECTION ( 'NONE',  ( 0.000000000000000000, -0.000000000000000000, 1.000000000000000000 ) ) ;
#1222 = AXIS2_PLACEMENT_3D ( 'NONE', #817, #210, #531 ) ;
#1223 = DATE_TIME_ROLE ( 'creation_date' ) ;
#1224 = FACE_OUTER_BOUND ( 'NONE', #1081, .T. ) ;
#1225 = LINE ( 'NONE', #711, #808 ) ;
#1226 = CARTESIAN_POINT ( 'NONE',  ( 30.49999999999999645, 10.00000000000000000, -25.50000000000000355 ) ) ;
#1227 = VECTOR ( 'NONE', #641, 1000.000000000000000 ) ;
#1228 = CARTESIAN_POINT ( 'NONE',  ( 33.00000000000000711, 10.00000000000000000, 27.99999999999999645 ) ) ;
#1229 = CARTESIAN_POINT ( 'NONE',  ( 30.49999999999999645, 3.000000000000000000, 6.999999999999995559 ) ) ;
#1230 = EDGE_CURVE ( 'NONE', #978, #358, #1070, .T. ) ;
#1231 = CARTESIAN_POINT ( 'NONE',  ( 0.000000000000000000, 10.00000000000000000, 0.000000000000000000 ) ) ;
#1232 = PERSON_AND_ORGANIZATION ( #583, #1214 ) ;
#1233 = DIRECTION ( 'NONE',  ( 0.000000000000000000, 1.000000000000000000, 0.000000000000000000 ) ) ;
#1234 = PLANE ( 'NONE',  #647 ) ;
#1235 = DIRECTION ( 'NONE',  ( -1.000000000000000000, 0.000000000000000000, 0.000000000000000000 ) ) ;
#1236 = ORIENTED_EDGE ( 'NONE', *, *, #646, .T. ) ;
#1237 = EDGE_CURVE ( 'NONE', #438, #614, #670, .T. ) ;
#1238 = ORIENTED_EDGE ( 'NONE', *, *, #509, .T. ) ;
#1239 = DIRECTION ( 'NONE',  ( 1.000000000000000000, 0.000000000000000000, -0.000000000000000000 ) ) ;
#1240 = LINE ( 'NONE', #324, #1052 ) ;
#1241 = CARTESIAN_POINT ( 'NONE',  ( -32.99999999999999289, 10.00000000000000000, 28.00000000000000355 ) ) ;
#1242 = ORIENTED_EDGE ( 'NONE', *, *, #102, .T. ) ;
#1243 = CARTESIAN_POINT ( 'NONE',  ( 33.00000000000000711, 10.00000000000000000, 6.999999999999995559 ) ) ;
#1244 = CARTESIAN_POINT ( 'NONE',  ( -25.00000000000000000, 3.000000000000000000, 20.00000000000000355 ) ) ;
#1245 = EDGE_CURVE ( 'NONE', #1098, #868, #749, .T. ) ;
#1246 = CARTESIAN_POINT ( 'NONE',  ( 23.00000000000000711, 7.000000000000000000, 6.999999999999995559 ) ) ;
#1247 = FACE_BOUND ( 'NONE', #1055, .T. ) ;
#1248 = CARTESIAN_POINT ( 'NONE',  ( 30.49999999999999645, 3.000000000000000000, -25.50000000000000355 ) ) ;
#1249 = ORIENTED_EDGE ( 'NONE', *, *, #330, .F. ) ;
#1250 = DIRECTION ( 'NONE',  ( 0.000000000000000000, 1.000000000000000000, 0.000000000000000000 ) ) ;
#1251 = LINE ( 'NONE', #145, #640 ) ;
#1252 = EDGE_LOOP ( 'NONE', ( #355, #747, #515, #468, #759, #997, #1174, #675 ) ) ;
#1253 = ADVANCED_FACE ( 'NONE', ( #740 ), #158, .F. ) ;
#1254 = CARTESIAN_POINT ( 'NONE',  ( 23.00000000000000711, 10.00000000000000000, -7.000000000000004441 ) ) ;
#1255 = EDGE_CURVE ( 'NONE', #978, #972, #1163, .T. ) ;
#1256 = AXIS2_PLACEMENT_3D ( 'NONE', #1280, #953, #45 ) ;
#1257 = ORIENTED_EDGE ( 'NONE', *, *, #278, .T. ) ;
#1258 = DIRECTION ( 'NONE',  ( 0.000000000000000000, 0.000000000000000000, 1.000000000000000000 ) ) ;
#1259 = CARTESIAN_POINT ( 'NONE',  ( 30.49999999999999645, 3.000000000000000000, -15.00000000000000000 ) ) ;
#1260 = VERTEX_POINT ( 'NONE', #1148 ) ;
#1261 = COORDINATED_UNIVERSAL_TIME_OFFSET ( 8, 0, .AHEAD. ) ;
#1262 = VERTEX_POINT ( 'NONE', #41 ) ;
#1263 = AXIS2_PLACEMENT_3D ( 'NONE', #1309, #11, #502 ) ;
#1264 = LINE ( 'NONE', #1254, #505 ) ;
#1265 = EDGE_CURVE ( 'NONE', #1183, #267, #248, .T. ) ;
#1266 = ORIENTED_EDGE ( 'NONE', *, *, #733, .F. ) ;
#1267 = DIRECTION ( 'NONE',  ( -0.000000000000000000, 1.000000000000000000, -0.000000000000000000 ) ) ;
#1268 = DIRECTION ( 'NONE',  ( 1.000000000000000000, -0.000000000000000000, -1.137523590804463822E-16 ) ) ;
#1269 = ORIENTED_EDGE ( 'NONE', *, *, #1003, .T. ) ;
#1270 = ORIENTED_EDGE ( 'NONE', *, *, #447, .T. ) ;
#1271 = ORIENTED_EDGE ( 'NONE', *, *, #736, .F. ) ;
#1272 = LINE ( 'NONE', #437, #1 ) ;
#1273 = ORIENTED_EDGE ( 'NONE', *, *, #636, .F. ) ;
#1274 = ADVANCED_FACE ( 'NONE', ( #450 ), #551, .F. ) ;
#1275 = DIRECTION ( 'NONE',  ( 0.000000000000000000, 0.000000000000000000, 1.000000000000000000 ) ) ;
#1276 = DIRECTION ( 'NONE',  ( 1.000000000000000000, 0.000000000000000000, 0.000000000000000000 ) ) ;
#1277 = ORIENTED_EDGE ( 'NONE', *, *, #224, .F. ) ;
#1278 = ORIENTED_EDGE ( 'NONE', *, *, #786, .T. ) ;
#1279 = ORIENTED_EDGE ( 'NONE', *, *, #341, .F. ) ;
#1280 = CARTESIAN_POINT ( 'NONE',  ( -25.00000000000000000, 0.000000000000000000, 20.00000000000000355 ) ) ;
#1281 = LOCAL_TIME ( 15, 37, 31.00000000000000000, #922 ) ;
#1282 = VERTEX_POINT ( 'NONE', #240 ) ;
#1283 = VECTOR ( 'NONE', #262, 1000.000000000000000 ) ;
#1284 = ORIENTED_EDGE ( 'NONE', *, *, #733, .T. ) ;
#1285 = DIRECTION ( 'NONE',  ( 0.000000000000000000, 0.000000000000000000, 1.000000000000000000 ) ) ;
#1286 = DIRECTION ( 'NONE',  ( 0.000000000000000000, 0.000000000000000000, 1.000000000000000000 ) ) ;
#1287 = ORIENTED_EDGE ( 'NONE', *, *, #786, .F. ) ;
#1288 = ORIENTED_EDGE ( 'NONE', *, *, #877, .F. ) ;
#1289 = EDGE_CURVE ( 'NONE', #1073, #25, #956, .T. ) ;
#1290 = EDGE_LOOP ( 'NONE', ( #266, #571, #1090, #980 ) ) ;
#1291 = ORIENTED_EDGE ( 'NONE', *, *, #1265, .F. ) ;
#1292 = VECTOR ( 'NONE', #17, 1000.000000000000000 ) ;
#1293 = ORIENTED_EDGE ( 'NONE', *, *, #1289, .F. ) ;
#1294 = DIRECTION ( 'NONE',  ( 0.000000000000000000, 0.000000000000000000, 1.000000000000000000 ) ) ;
#1295 = CARTESIAN_POINT ( 'NONE',  ( -30.50000000000000355, 3.000000000000000000, 15.00000000000000000 ) ) ;
#1296 = VERTEX_POINT ( 'NONE', #1170 ) ;
#1297 = ORIENTED_EDGE ( 'NONE', *, *, #516, .T. ) ;
#1298 = APPROVAL ( #214, '未指定' ) ;
#1299 = EDGE_CURVE ( 'NONE', #268, #1282, #856, .T. ) ;
#1300 = AXIS2_PLACEMENT_3D ( 'NONE', #699, #618, #1138 ) ;
#1301 = EDGE_LOOP ( 'NONE', ( #570, #580, #435, #683 ) ) ;
#1302 = LINE ( 'NONE', #788, #1093 ) ;
#1303 = CARTESIAN_POINT ( 'NONE',  ( 20.00000000000000000, 0.000000000000000000, 25.49999999999999289 ) ) ;
#1304 = ORIENTED_EDGE ( 'NONE', *, *, #1245, .F. ) ;
#1305 = ADVANCED_FACE ( 'NONE', ( #344 ), #864, .F. ) ;
#1306 = CARTESIAN_POINT ( 'NONE',  ( 25.00000000000000000, 0.000000000000000000, 21.59999999999999787 ) ) ;
#1307 = FACE_OUTER_BOUND ( 'NONE', #139, .T. ) ;
#1308 = VECTOR ( 'NONE', #762, 1000.000000000000000 ) ;
#1309 = CARTESIAN_POINT ( 'NONE',  ( -25.00000000000000000, 0.000000000000000000, -19.99999999999999645 ) ) ;
#1310 = CC_DESIGN_PERSON_AND_ORGANIZATION_ASSIGNMENT ( #1108, #1021, ( #127 ) ) ;
#1311 = CARTESIAN_POINT ( 'NONE',  ( 33.00000000000000711, 0.000000000000000000, -28.00000000000000355 ) ) ;
#1312 = PERSON_AND_ORGANIZATION ( #583, #1214 ) ;
#1313 = CARTESIAN_POINT ( 'NONE',  ( -20.00000000000000000, 0.000000000000000000, 15.00000000000000000 ) ) ;
#1314 = CARTESIAN_POINT ( 'NONE',  ( 33.00000000000000711, 7.000000000000000000, 6.999999999999995559 ) ) ;
#1315 = EDGE_CURVE ( 'NONE', #268, #614, #601, .T. ) ;
#1316 = EDGE_CURVE ( 'NONE', #1086, #326, #1012, .T. ) ;
#1317 = VECTOR ( 'NONE', #691, 1000.000000000000000 ) ;
#1318 = DIRECTION ( 'NONE',  ( 0.000000000000000000, 0.000000000000000000, 1.000000000000000000 ) ) ;
#1319 = FACE_BOUND ( 'NONE', #81, .T. ) ;
ENDSEC;
END-ISO-10303-21;
